<svg id="레이어_1" data-name="레이어 1" xmlns="http://www.w3.org/2000/svg" viewBox="0 0 109.42 27"><defs><style>.cls-1{fill:#1366ff;}</style></defs><polygon class="cls-1" points="3.98 4.3 7.95 6.59 11.44 4.58 18.92 8.89 18.92 18.11 11.44 22.42 3.96 18.11 3.96 13.48 11.44 17.79 14.96 15.76 14.96 11.18 11.44 13.21 0 6.61 0 20.39 11.44 27 22.88 20.39 22.88 6.61 11.44 0 3.98 4.3"/><polygon class="cls-1" points="33.22 7.14 31.05 7.14 31.05 19.93 38.55 19.93 38.55 18 33.22 18 33.22 7.14"/><path class="cls-1" d="M46,17.75l-.29.12a4.72,4.72,0,0,1-1.93.39c-.72,0-1.17-.21-1.37-.61a6.37,6.37,0,0,1-.29-2.36V10.18H40v5.09a7.69,7.69,0,0,0,.68,3.8,3,3,0,0,0,2.7,1.08A5.32,5.32,0,0,0,46,19.33v.6h2.11V10.18H46Z"/><path class="cls-1" d="M55.47,10a5.51,5.51,0,0,0-2.7.82v-.6h-2.1v9.75h2.12V12.36l.3-.11A4.8,4.8,0,0,1,55,11.86a1.41,1.41,0,0,1,1.39.66,5.24,5.24,0,0,1,.34,2.24v5.17h2.11V14.7a7,7,0,0,0-.71-3.64A2.93,2.93,0,0,0,55.47,10Z"/><rect class="cls-1" x="61.32" y="10.18" width="2.13" height="9.76"/><rect class="cls-1" x="61.32" y="6.85" width="2.13" height="1.67"/><polygon class="cls-1" points="69.83 18.12 69.2 18.12 67.33 10.18 65.11 10.18 67.62 19.93 71.41 19.93 73.95 10.18 71.78 10.18 69.83 18.12"/><path class="cls-1" d="M79.22,10Q75,10,75,15.15a6.12,6.12,0,0,0,1,3.81A3.75,3.75,0,0,0,79,20.15,20.15,20.15,0,0,0,83,19.7l0-1.58-.54.06q-1.47.12-2.85.12a2.49,2.49,0,0,1-1.9-.57A2.72,2.72,0,0,1,77.13,16h6.05l.13-1.52Q83.31,10,79.22,10Zm-2.11,4.35a3.16,3.16,0,0,1,.52-2,2,2,0,0,1,1.59-.6,1.9,1.9,0,0,1,1.55.57,3.39,3.39,0,0,1,.46,2Z"/><path class="cls-1" d="M87.47,10.81v-.63H85.36v9.75h2.13V12.67a6.67,6.67,0,0,1,3.3-.37V10.18A6,6,0,0,0,87.47,10.81Z"/><path class="cls-1" d="M96.52,14.13a10,10,0,0,1-2.07-.5.74.74,0,0,1-.44-.74.83.83,0,0,1,.4-.77,3,3,0,0,1,1.43-.25,28.25,28.25,0,0,1,3.34.32l0-1.78-.61-.12A19.47,19.47,0,0,0,95.55,10a4.42,4.42,0,0,0-2.63.74,2.61,2.61,0,0,0-1,2.25A2.49,2.49,0,0,0,92.64,15a5.52,5.52,0,0,0,2.33.83,8.16,8.16,0,0,1,2,.48.84.84,0,0,1,.42.81A.88.88,0,0,1,97,18a3.08,3.08,0,0,1-1.47.26,29.3,29.3,0,0,1-3.38-.32L92,19.72l.6.1a17.4,17.4,0,0,0,3,.33,4.86,4.86,0,0,0,2.88-.72,2.64,2.64,0,0,0,1-2.27A2.78,2.78,0,0,0,98.83,15,4.75,4.75,0,0,0,96.52,14.13Z"/><path class="cls-1" d="M109.42,14.43q0-4.47-4.09-4.47-4.24,0-4.24,5.19A6.12,6.12,0,0,0,102,19a3.75,3.75,0,0,0,3.11,1.19,20.07,20.07,0,0,0,3.94-.45l0-1.58-.54.06q-1.47.12-2.85.12a2.45,2.45,0,0,1-1.89-.57,2.66,2.66,0,0,1-.53-1.78h6.05Zm-6.2-.12a3.16,3.16,0,0,1,.52-2,2,2,0,0,1,1.59-.6,1.9,1.9,0,0,1,1.55.57,3.39,3.39,0,0,1,.46,2Z"/></svg>