<svg id="레이어_1" data-name="레이어 1" xmlns="http://www.w3.org/2000/svg" viewBox="0 0 97.5 27"><defs><style>.cls-1{fill:#342579;}.cls-2{fill:#222;}</style></defs><rect class="cls-1" x="20.25" y="20.25" width="6.75" height="6.75"/><path class="cls-1" d="M13.5,5.77a7.73,7.73,0,0,1,7.73,7.73A7.89,7.89,0,0,1,21,15.19h5.85a13.53,13.53,0,1,0-11.7,11.7V21a7.89,7.89,0,0,1-1.69.19,7.73,7.73,0,0,1,0-15.46Z"/><path class="cls-2" d="M52.54,19.09a6.79,6.79,0,0,1-1.64,2.42,7.5,7.5,0,0,1-2.57,1.57,10.13,10.13,0,0,1-6.7,0,7.32,7.32,0,0,1-2.53-1.57,6.8,6.8,0,0,1-1.59-2.42A8.27,8.27,0,0,1,37,16V4.11h4.52V15.59a5.38,5.38,0,0,0,.2,1.47,3.75,3.75,0,0,0,.62,1.25,2.81,2.81,0,0,0,1.09.88,4.34,4.34,0,0,0,3.27,0,3,3,0,0,0,1.11-.88,3.39,3.39,0,0,0,.61-1.25,5.8,5.8,0,0,0,.19-1.47V4.11h4.55V16A8.27,8.27,0,0,1,52.54,19.09Z"/><path class="cls-2" d="M71.38,17.6a5.16,5.16,0,0,1-.62,2.62,4.83,4.83,0,0,1-1.62,1.71,6.89,6.89,0,0,1-2.3.92,12.37,12.37,0,0,1-2.65.29H56.68v-19h7.51a11.57,11.57,0,0,1,2.23.23,6.41,6.41,0,0,1,2.08.78A4.51,4.51,0,0,1,70,6.61,4.48,4.48,0,0,1,70.6,9a4,4,0,0,1-.85,2.62,4.72,4.72,0,0,1-2.23,1.49v.06a4.91,4.91,0,0,1,1.5.5,4.27,4.27,0,0,1,2,2.24A4.5,4.5,0,0,1,71.38,17.6Zm-5.17-8a1.53,1.53,0,0,0-.73-1.41,4.32,4.32,0,0,0-2.17-.44H61.07v3.92h2.45a3.26,3.26,0,0,0,2-.52A1.82,1.82,0,0,0,66.21,9.62Zm.61,7.55a1.68,1.68,0,0,0-.88-1.64,5.13,5.13,0,0,0-2.34-.45H61.07v4.35h2.56a6.08,6.08,0,0,0,1.1-.1,3.43,3.43,0,0,0,1-.33,2,2,0,0,0,.76-.69A2,2,0,0,0,66.82,17.17Z"/><path class="cls-2" d="M87.5,22.82a9.71,9.71,0,0,1-4.12.82,10.72,10.72,0,0,1-3.93-.7,9.23,9.23,0,0,1-3.12-2,9.37,9.37,0,0,1-2.07-3.1,10.26,10.26,0,0,1-.75-4,10.18,10.18,0,0,1,.76-4,8.94,8.94,0,0,1,2.11-3.08,9.4,9.4,0,0,1,3.17-1.94,10.86,10.86,0,0,1,3.91-.68,11,11,0,0,1,3.82.69,7.34,7.34,0,0,1,3,2l-3,3a3.68,3.68,0,0,0-1.63-1.28,5.4,5.4,0,0,0-2.08-.42,5.13,5.13,0,0,0-2.13.43A5,5,0,0,0,79.8,9.81a5.39,5.39,0,0,0-1.08,1.79,6.35,6.35,0,0,0-.39,2.26,6.49,6.49,0,0,0,.39,2.3A5.22,5.22,0,0,0,79.79,18a5,5,0,0,0,1.65,1.16,5.18,5.18,0,0,0,2.1.42,4.79,4.79,0,0,0,2.3-.53,4.29,4.29,0,0,0,1.58-1.36l3.09,2.93A8.79,8.79,0,0,1,87.5,22.82Z"/><path class="cls-2" d="M92.92,23.14v-19H97.5v19Z"/></svg>