<svg id="레이어_1" data-name="레이어 1" xmlns="http://www.w3.org/2000/svg" viewBox="0 0 14.66 18"><path d="M12.4,10.81a4.93,4.93,0,0,1,.2-2.95,5.17,5.17,0,0,1,1.58-1.75,4.26,4.26,0,0,0-3-1.76,5.24,5.24,0,0,0-3.21.77,1.43,1.43,0,0,1-1.06,0A7,7,0,0,0,4.55,4.4a5,5,0,0,0-2.48.83A5.36,5.36,0,0,0,0,9.23,12.08,12.08,0,0,0,.8,13.72a12.56,12.56,0,0,0,2.28,3.52c1,.94,1.47.81,1.81.81a21.14,21.14,0,0,0,2-.68,3.45,3.45,0,0,1,1.19-.06c.44,0,1.67.74,2.21.74a2.53,2.53,0,0,0,1.89-.77,13.32,13.32,0,0,0,2-2.94,10.79,10.79,0,0,0,.41-1.09A5.15,5.15,0,0,1,12.4,10.81Z"/><path d="M10.89,0A3.74,3.74,0,0,0,7.33,4.12S10.82,4.12,10.89,0Z"/></svg>