<svg id="레이어_1" data-name="레이어 1" xmlns="http://www.w3.org/2000/svg" viewBox="0 0 138.31 27"><defs><style>.cls-1{fill:#fff;}.cls-2{fill:#541cd5;}.cls-3{fill:#00ff47;}.cls-4{fill:#00ed1c;}</style></defs><path class="cls-1" d="M26,3.28h0l-.63-.42-1.23-.8-2-1.24c-1.11-.6-2.21-1-6-.74L4.52.84A5.23,5.23,0,0,0,0,5.66V18.81a5.67,5.67,0,0,0,1.35,3.8s2,2.25,2.73,3a3.91,3.91,0,0,0,3.06,1.14l12.93-.84a4.89,4.89,0,0,1,1.06,0h0l.36,0h0l.43.1.16.05c.16.06.36.15.56.25l.08,0,.09,0,.27.13.14.05.09,0,.33.12.1,0,.41.11a2.93,2.93,0,0,0,.66,0h0a2.48,2.48,0,0,0,.88-.22.19.19,0,0,0,.09,0,2.9,2.9,0,0,0,.6-.38,3.05,3.05,0,0,0,.49-.53l.09-.12a3.24,3.24,0,0,0,.51-1.77V6.75h0V6.41A3.87,3.87,0,0,0,26,3.28Z"/><path class="cls-2" d="M27.49,23.92V6.75h0V6.41A3.87,3.87,0,0,0,26,3.28h0l-.63-.42-1.23-.8-2-1.24c-1.11-.6-2.21-1-6-.74L4.52.84A5.23,5.23,0,0,0,0,5.66V18.81a5.67,5.67,0,0,0,1.35,3.8s2,2.25,2.73,3a3.91,3.91,0,0,0,3.06,1.14l12.93-.84a4.89,4.89,0,0,1,1.06,0h0l.36,0h0l.43.1.16.05c.16.06.36.15.56.25l.08,0,.09,0,.27.13.14.05.09,0,.33.12.1,0,.41.11a2.93,2.93,0,0,0,.66,0h0a2.48,2.48,0,0,0,.88-.22.19.19,0,0,0,.09,0,2.9,2.9,0,0,0,.6-.38,3.05,3.05,0,0,0,.49-.53l.09-.12A3.24,3.24,0,0,0,27.49,23.92ZM5.12,8.22A2.57,2.57,0,0,1,7.49,5.69L23,4.68a2.19,2.19,0,0,1,2.37,2.21V24.06a.87.87,0,0,1-.25.66.47.47,0,0,1-.38.1,5.39,5.39,0,0,1-1.05-.41,7.31,7.31,0,0,0-1-.4,8.39,8.39,0,0,0-2.54-.27h-.06l-12.56.83a2.2,2.2,0,0,1-2.37-2.22Z"/><path class="cls-3" d="M22.74,7l-1.84.12a.41.41,0,0,0-.37.4V9.31a.35.35,0,0,0,.37.35l1.84-.12a.41.41,0,0,0,.37-.4V7.3A.35.35,0,0,0,22.74,7Z"/><path class="cls-2" d="M19.82,18.16a.27.27,0,0,0-.19-.08h0l-4.56.3,2.18-2.16c1.74-1.68,2.45-3,2.45-4.42a3.06,3.06,0,0,0-1.2-2.54,4.79,4.79,0,0,0-3.2-.76,4.8,4.8,0,0,0-4.52,3.31.29.29,0,0,0,0,.22.3.3,0,0,0,.17.12l2.17.54a.31.31,0,0,0,.23,0,.3.3,0,0,0,.14-.19,2.32,2.32,0,0,1,.67-1.09,1.86,1.86,0,0,1,1.1-.44,1.54,1.54,0,0,1,1.08.28,1.1,1.1,0,0,1,.39.89c0,.79-.57,1.72-1.74,2.84l-4.17,4.13a.31.31,0,0,0-.09.22v1.47a.25.25,0,0,0,.09.2A.26.26,0,0,0,11,21h0l8.55-.56a.32.32,0,0,0,.3-.31V18.36A.25.25,0,0,0,19.82,18.16Z"/><path class="cls-2" d="M46.57,19.44v2.4a.18.18,0,0,1-.17.17h-11a.18.18,0,0,1-.17-.17V19.9a.14.14,0,0,1,.06-.12l5.36-5.1c1.27-1.16,2.3-2.46,2.3-3.75a1.89,1.89,0,0,0-2.1-1.87,2.5,2.5,0,0,0-2.47,2,.18.18,0,0,1-.22.12l-2.79-.9a.18.18,0,0,1-.12-.21,5.53,5.53,0,0,1,5.62-3.83c3.32,0,5.44,1.78,5.44,4.52,0,2.06-1.11,3.66-3.07,5.47l-3.19,3H46.4A.18.18,0,0,1,46.57,19.44Z"/><path class="cls-2" d="M59.21,14.61v7.23A.18.18,0,0,1,59,22h-3.1V15.26a2.19,2.19,0,0,0-2.32-2.35,2.26,2.26,0,0,0-2.36,2.15v6.78a.18.18,0,0,1-.18.17h-3a.18.18,0,0,1-.17-.17V10.44a.18.18,0,0,1,.17-.18H50.9a.18.18,0,0,1,.17.18v.91A4.88,4.88,0,0,1,54.61,10,4.36,4.36,0,0,1,59.21,14.61Z"/><path class="cls-2" d="M72.74,5.89v16a.18.18,0,0,1-.18.17h-2.7a.18.18,0,0,1-.18-.17v-1a4.79,4.79,0,0,1-3.61,1.49,5.84,5.84,0,0,1-5.84-6.15C60.23,12.62,62.62,10,66,10a4.88,4.88,0,0,1,3.46,1.3V5.89a.18.18,0,0,1,.17-.18h3A.18.18,0,0,1,72.74,5.89ZM69.57,16.15a3,3,0,0,0-3-3.26,3.05,3.05,0,0,0-3,3.26,3,3,0,0,0,3,3.23A3,3,0,0,0,69.57,16.15Z"/><path class="cls-2" d="M90.63,16.15a5.84,5.84,0,0,1-5.84,6.15,4.75,4.75,0,0,1-3.61-1.51v1.05A.18.18,0,0,1,81,22H78.3a.17.17,0,0,1-.17-.17V5.89a.17.17,0,0,1,.17-.18h3a.18.18,0,0,1,.18.18v5.4A4.86,4.86,0,0,1,84.88,10C88.27,10,90.63,12.62,90.63,16.15Zm-3.27,0a3,3,0,0,0-3-3.26,3,3,0,0,0-3.06,3.26,3,3,0,0,0,3.06,3.23A3,3,0,0,0,87.36,16.15Z"/><path class="cls-2" d="M91.94,5.71h3a.18.18,0,0,1,.18.18v16a.18.18,0,0,1-.18.17h-3a.17.17,0,0,1-.17-.17V5.89A.17.17,0,0,1,91.94,5.71Z"/><path class="cls-2" d="M96.18,16.15a6.36,6.36,0,0,1,12.71,0,6.36,6.36,0,0,1-12.71,0Zm9.41,0a3,3,0,1,0-6.09,0,3,3,0,1,0,6.09,0Z"/><path class="cls-2" d="M109.87,16.17a6.06,6.06,0,0,1,6.2-6.18,5.82,5.82,0,0,1,5.62,3.7.18.18,0,0,1-.1.22l-2.62,1a.17.17,0,0,1-.23-.11,2.61,2.61,0,0,0-2.6-1.89,3,3,0,0,0-2.94,3.21,3,3,0,0,0,2.94,3.21,2.71,2.71,0,0,0,2.67-1.88.16.16,0,0,1,.22-.1l2.62,1.05a.17.17,0,0,1,.1.22,5.85,5.85,0,0,1-5.68,3.65A6,6,0,0,1,109.87,16.17Z"/><path class="cls-2" d="M130.39,22l-4.16-5.27v5.16a.18.18,0,0,1-.18.17h-3a.17.17,0,0,1-.17-.17V5.89a.17.17,0,0,1,.17-.18h3a.18.18,0,0,1,.18.18v9l4-4.58a.18.18,0,0,1,.13-.06h3.22a.18.18,0,0,1,.14.29l-4.44,5.15,4.54,6a.17.17,0,0,1-.14.28h-3.16A.16.16,0,0,1,130.39,22Z"/><rect class="cls-4" x="135.5" y="19.22" width="2.8" height="2.8" rx="0.16"/></svg>