<svg id="레이어_1" data-name="레이어 1" xmlns="http://www.w3.org/2000/svg" viewBox="0 0 133.35 27"><defs><style>.cls-1{fill:#e21414;}.cls-2{fill:#1e1e1e;}</style></defs><path class="cls-1" d="M0,19v7.4A.54.54,0,0,0,.5,27H6.87a.62.62,0,0,0,.61-.59v-9L4.61,20.23A2.43,2.43,0,0,1,2.88,21a2.34,2.34,0,0,1-1.68-.71Z"/><path class="cls-1" d="M11.71,17.91l-2-2V26.41a.56.56,0,0,0,.55.59h6.37a.66.66,0,0,0,.66-.59V15.83l-2.12,2.08a2.5,2.5,0,0,1-1.76.71A2.38,2.38,0,0,1,11.71,17.91Z"/><path class="cls-1" d="M24.82,11.11h0L23.41,9.66l-3.89,3.93V26.41A.54.54,0,0,0,20,27h6.37a.62.62,0,0,0,.61-.59V11.85a1.62,1.62,0,0,1-.32,0A2.65,2.65,0,0,1,24.82,11.11Z"/><path class="cls-1" d="M26.69,0h-9a.34.34,0,0,0-.34.18.36.36,0,0,0,.08.39L20.37,3.5l0,0-6.89,6.88,0,0L9.48,6.44a.19.19,0,0,0-.13-.05.21.21,0,0,0-.13.05L.05,15.61a.19.19,0,0,0,0,.26l2.76,2.76a.21.21,0,0,0,.26,0l6.28-6.29,0,0,3.94,3.94a.21.21,0,0,0,.26,0l9.8-9.81,0,0,3,3a.39.39,0,0,0,.27.11l.12,0A.35.35,0,0,0,27,9.26v-9a.26.26,0,0,0-.09-.22A.28.28,0,0,0,26.69,0Z"/><polygon class="cls-2" points="38.24 13.43 38.22 13.43 38.22 13.46 38.22 15.4 38.22 15.42 38.24 15.42 56.47 15.42 56.49 15.42 56.49 15.4 56.49 13.46 56.49 13.43 56.47 13.43 38.24 13.43"/><path class="cls-2" d="M51.62,17.45a7.21,7.21,0,0,0-2-.76,9.91,9.91,0,0,0-2.15-.24,8.84,8.84,0,0,0-2.2.28,6.29,6.29,0,0,0-1.92.84A4.76,4.76,0,0,0,42,19a3.66,3.66,0,0,0-.58,1.94h0A3.86,3.86,0,0,0,42,23a4.63,4.63,0,0,0,1.44,1.38,6.57,6.57,0,0,0,2,.8,9.43,9.43,0,0,0,2.19.25,9.7,9.7,0,0,0,2.22-.26,6.8,6.8,0,0,0,2-.81,4.63,4.63,0,0,0,1.41-1.41,3.63,3.63,0,0,0,.55-2,3.86,3.86,0,0,0-.61-2.08A4.61,4.61,0,0,0,51.62,17.45ZM44.23,19.8a2.65,2.65,0,0,1,.84-.79,4.55,4.55,0,0,1,1.19-.43,5.75,5.75,0,0,1,1.3-.14,6.14,6.14,0,0,1,1.35.15,4.38,4.38,0,0,1,1.17.44,2.52,2.52,0,0,1,.8.79,2,2,0,0,1,.3,1.11,1.93,1.93,0,0,1-.32,1.13,2.8,2.8,0,0,1-.82.79,4.17,4.17,0,0,1-1.2.43,7.25,7.25,0,0,1-1.3.13,6,6,0,0,1-1.32-.15,3.6,3.6,0,0,1-1.16-.45,2.67,2.67,0,0,1-.85-.78,2,2,0,0,1-.3-1.1A2,2,0,0,1,44.23,19.8Z"/><path class="cls-2" d="M41.33,12.41h0l.14-.08c.49-.28,1-.6,1.54-.95a16.82,16.82,0,0,0,1.6-1.21A19.41,19.41,0,0,0,46.22,8.7c.37-.38,1-1.11,1.31-1.52.34.41.94,1.14,1.3,1.52a19.49,19.49,0,0,0,1.59,1.47A16.82,16.82,0,0,0,52,11.38c.53.35,1,.67,1.54.95l.14.08h0l1.52-1.56,0,0,0,0L55,10.68A31.61,31.61,0,0,1,52,8.6a11.69,11.69,0,0,1-2.23-2.27h5.1v-2H40.22v2h5.09A11.15,11.15,0,0,1,43.08,8.6a30.42,30.42,0,0,1-3,2.08l-.22.13,0,0v0Z"/><path class="cls-2" d="M61.77,17.42v0h2.36V14H71V12H68A18.45,18.45,0,0,0,69,8.41a31.18,31.18,0,0,0,.21-3.66V4.52H58.53v2h8.19a15.78,15.78,0,0,1-.19,2,18.27,18.27,0,0,1-1,3.41h-8v2h4.24Z"/><polygon class="cls-2" points="67.93 15.6 67.93 15.62 67.93 17.47 67.93 17.49 67.96 17.49 71.88 17.49 71.88 20.15 71.88 20.18 71.91 20.18 74.31 20.18 74.33 20.18 74.33 20.15 74.33 4.16 74.33 4.14 74.31 4.14 71.91 4.14 71.88 4.14 71.88 4.16 71.88 15.6 67.96 15.6 67.93 15.6"/><polygon class="cls-2" points="63.29 22.55 63.29 18.23 63.29 18.2 63.26 18.2 60.85 18.2 60.83 18.2 60.83 18.23 60.83 24.63 60.83 24.65 60.85 24.65 74.56 24.65 74.58 24.65 74.58 24.63 74.58 22.57 74.58 22.55 74.56 22.55 63.29 22.55"/><path class="cls-2" d="M92.67,11.62h0v-2H90.25V6.33h2.44v-2H78.24v2h2.37v3.3H78.24v2H92.67Zm-4.8-5.11v3.3H83V6.51Z"/><polygon class="cls-2" points="76.27 13.04 76.25 13.04 76.25 13.06 76.25 15 76.25 15.02 76.27 15.02 94.49 15.02 94.52 15.02 94.52 15 94.52 13.06 94.52 13.04 94.49 13.04 76.27 13.04"/><polygon class="cls-2" points="81.36 22.67 81.36 21.48 91.93 21.48 91.95 21.48 91.95 21.46 91.95 16.44 91.95 16.42 91.93 16.42 79.06 16.42 79.03 16.42 79.03 16.44 79.03 18.33 79.03 18.36 79.06 18.36 89.64 18.36 89.64 19.57 79.06 19.57 79.03 19.57 79.03 19.59 79.03 24.64 79.03 24.66 79.06 24.66 92.22 24.66 92.25 24.66 92.25 24.64 92.25 22.7 92.25 22.67 92.22 22.67 81.36 22.67"/><polygon class="cls-2" points="110.41 4.12 110.38 4.12 110.38 4.14 110.38 10.9 106.9 10.9 106.88 10.9 106.88 10.92 106.88 12.93 106.88 12.95 106.9 12.95 110.43 12.95 110.43 24.64 110.43 24.66 110.45 24.66 112.79 24.66 112.81 24.66 112.81 24.64 112.81 4.14 112.81 4.12 112.79 4.12 110.41 4.12"/><polygon class="cls-2" points="99.11 17.38 99.11 12.95 106.03 12.95 106.05 12.95 106.05 12.93 106.05 4.55 106.05 4.53 106.03 4.53 96.68 4.53 96.66 4.53 96.66 4.55 96.66 6.5 96.66 6.52 96.68 6.52 103.6 6.52 103.6 10.96 96.68 10.96 96.66 10.96 96.66 10.98 96.66 19.35 96.66 19.37 96.68 19.37 107.7 19.37 107.72 19.37 107.72 19.35 107.72 17.41 107.72 17.38 107.7 17.38 99.11 17.38"/><path class="cls-2" d="M133.33,19.39H115.08v2.09h18.27V19.39ZM115.1,21.46h0"/><path class="cls-2" d="M129.84,10.55a30.76,30.76,0,0,1-2.17-2.4,20.5,20.5,0,0,1-1.58-2.08,6.45,6.45,0,0,1-.73-1.34l-.07-.2H123l-.06.2a7.6,7.6,0,0,1-.73,1.34,25.58,25.58,0,0,1-1.58,2.09c-.64.77-1.37,1.58-2.18,2.39a27,27,0,0,1-2.53,2.28l-.2.15,1.92,1.51.12-.09c.14-.11.48-.39,1-.82s1.14-1,1.83-1.67,1.38-1.43,2.09-2.28a17.6,17.6,0,0,0,1.47-2l0,0,0,0a17.6,17.6,0,0,0,1.47,2c.71.85,1.42,1.61,2.1,2.28s1.3,1.24,1.82,1.67l1,.82.12.09L132.57,13l-.19-.15A27.09,27.09,0,0,1,129.84,10.55Z"/></svg>