<svg id="레이어_1" data-name="레이어 1" xmlns="http://www.w3.org/2000/svg" viewBox="0 0 199.2 27"><defs><style>.cls-1{fill:#e21414;}.cls-2{fill:#1e1e1e;}.cls-3{fill:#fff;}</style></defs><path class="cls-1" d="M0,19v7.4A.54.54,0,0,0,.5,27H6.87a.62.62,0,0,0,.61-.59v-9L4.61,20.23A2.43,2.43,0,0,1,2.88,21a2.34,2.34,0,0,1-1.68-.71Z"/><path class="cls-1" d="M11.71,17.91l-2-2V26.41a.56.56,0,0,0,.55.59h6.37a.66.66,0,0,0,.66-.59V15.83l-2.12,2.08a2.5,2.5,0,0,1-1.76.71A2.38,2.38,0,0,1,11.71,17.91Z"/><path class="cls-1" d="M24.82,11.11h0L23.41,9.66l-3.89,3.93V26.41A.54.54,0,0,0,20,27h6.37a.62.62,0,0,0,.61-.59V11.85a1.62,1.62,0,0,1-.32,0A2.65,2.65,0,0,1,24.82,11.11Z"/><path class="cls-1" d="M26.69,0h-9a.34.34,0,0,0-.34.18.36.36,0,0,0,.08.39L20.37,3.5l0,0-6.89,6.88,0,0L9.48,6.44a.19.19,0,0,0-.13-.05.21.21,0,0,0-.13.05L.05,15.61a.19.19,0,0,0,0,.26l2.76,2.76a.21.21,0,0,0,.26,0l6.28-6.29,0,0,3.94,3.94a.21.21,0,0,0,.26,0l9.8-9.81,0,0,3,3a.39.39,0,0,0,.27.11l.12,0A.35.35,0,0,0,27,9.26v-9a.26.26,0,0,0-.09-.22A.28.28,0,0,0,26.69,0Z"/><polygon class="cls-2" points="38.24 13.46 38.22 13.46 38.22 13.48 38.22 15.42 38.22 15.45 38.24 15.45 56.47 15.45 56.49 15.45 56.49 15.42 56.49 13.48 56.49 13.46 56.47 13.46 38.24 13.46"/><path class="cls-2" d="M51.62,17.48a7.21,7.21,0,0,0-2-.76,9.91,9.91,0,0,0-2.15-.24,8.4,8.4,0,0,0-2.2.28,6.06,6.06,0,0,0-1.92.84A4.76,4.76,0,0,0,42,19a3.63,3.63,0,0,0-.58,1.94h0A3.89,3.89,0,0,0,42,23a4.75,4.75,0,0,0,1.44,1.38,6.57,6.57,0,0,0,2,.8,10,10,0,0,0,2.19.25,9.18,9.18,0,0,0,2.22-.27,6.79,6.79,0,0,0,2-.8,4.63,4.63,0,0,0,1.41-1.41,3.66,3.66,0,0,0,.55-2,3.86,3.86,0,0,0-.61-2.08A4.61,4.61,0,0,0,51.62,17.48Zm-7.39,2.35a2.65,2.65,0,0,1,.84-.79,4.57,4.57,0,0,1,1.19-.44,6.39,6.39,0,0,1,1.3-.14,5.6,5.6,0,0,1,1.35.16,3.79,3.79,0,0,1,1.17.44,2.59,2.59,0,0,1,.8.78,2,2,0,0,1,.3,1.12,1.93,1.93,0,0,1-.32,1.13,2.94,2.94,0,0,1-.82.79,3.88,3.88,0,0,1-1.2.42,6.44,6.44,0,0,1-1.3.13,6,6,0,0,1-1.32-.14,3.6,3.6,0,0,1-1.16-.45,2.67,2.67,0,0,1-.85-.78,2.16,2.16,0,0,1,0-2.23Z"/><path class="cls-2" d="M41.33,12.43v0h0l.14-.08c.49-.29,1-.61,1.54-.95a16.82,16.82,0,0,0,1.6-1.21,21.36,21.36,0,0,0,1.58-1.47c.37-.38,1-1.11,1.31-1.53.34.42.94,1.15,1.3,1.53a21.45,21.45,0,0,0,1.59,1.47A16.82,16.82,0,0,0,52,11.41c.53.34,1,.66,1.54.95l.14.08h0l0,0,1.52-1.56,0,0h0L55,10.71A35.71,35.71,0,0,1,52,8.63a11.69,11.69,0,0,1-2.23-2.27h5.1v-2H40.22v2h5.09a11.15,11.15,0,0,1-2.23,2.27,34.2,34.2,0,0,1-3,2.08l-.22.13h0v0Z"/><path class="cls-2" d="M61.77,17.45v0h2.36V14H71V12H68A18.45,18.45,0,0,0,69,8.44a31.18,31.18,0,0,0,.21-3.66V4.55H58.53v2h8.19a15.49,15.49,0,0,1-.19,2,18.14,18.14,0,0,1-1,3.42h-8v2h4.24Z"/><polygon class="cls-2" points="67.93 15.62 67.93 15.64 67.93 17.5 67.93 17.52 67.96 17.52 71.88 17.52 71.88 20.18 71.88 20.2 71.91 20.2 74.31 20.2 74.33 20.2 74.33 20.18 74.33 4.19 74.33 4.17 74.31 4.17 71.91 4.17 71.88 4.17 71.88 4.19 71.88 15.62 67.96 15.62 67.93 15.62"/><polygon class="cls-2" points="63.29 22.58 63.29 18.25 63.29 18.23 63.26 18.23 60.85 18.23 60.83 18.23 60.83 18.25 60.83 24.65 60.83 24.68 60.85 24.68 74.56 24.68 74.58 24.68 74.58 24.65 74.58 22.6 74.58 22.58 74.56 22.58 63.29 22.58"/><path class="cls-2" d="M92.67,11.65h0v-2H90.25V6.36h2.44v-2H78.24v2h2.37v3.3H78.24v2H92.67Zm-4.8-5.12V9.84H83V6.53Z"/><polygon class="cls-2" points="76.27 13.06 76.25 13.06 76.25 13.09 76.25 15.03 76.25 15.05 76.27 15.05 94.49 15.05 94.52 15.05 94.52 15.03 94.52 13.09 94.52 13.06 94.49 13.06 76.27 13.06"/><polygon class="cls-2" points="81.36 22.7 81.36 21.51 91.93 21.51 91.95 21.51 91.95 21.49 91.95 16.47 91.95 16.44 91.93 16.44 79.06 16.44 79.03 16.44 79.03 16.47 79.03 18.36 79.03 18.38 79.06 18.38 89.64 18.38 89.64 19.59 79.06 19.59 79.03 19.59 79.03 19.62 79.03 24.66 79.03 24.69 79.06 24.69 92.22 24.69 92.25 24.69 92.25 24.66 92.25 22.72 92.25 22.7 92.22 22.7 81.36 22.7"/><polygon class="cls-2" points="110.41 4.14 110.38 4.14 110.38 4.17 110.38 10.93 106.9 10.93 106.88 10.93 106.88 10.95 106.88 12.96 106.88 12.98 106.9 12.98 110.43 12.98 110.43 24.66 110.43 24.69 110.45 24.69 112.79 24.69 112.81 24.69 112.81 24.66 112.81 4.17 112.81 4.14 112.79 4.14 110.41 4.14"/><polygon class="cls-2" points="99.11 17.41 99.11 12.97 106.03 12.97 106.05 12.97 106.05 12.95 106.05 4.58 106.05 4.56 106.03 4.56 96.68 4.56 96.66 4.56 96.66 4.58 96.66 6.52 96.66 6.54 96.68 6.54 103.6 6.54 103.6 10.99 96.68 10.99 96.66 10.99 96.66 11.01 96.66 19.37 96.66 19.4 96.68 19.4 107.7 19.4 107.72 19.4 107.72 19.37 107.72 17.43 107.72 17.41 107.7 17.41 99.11 17.41"/><path class="cls-2" d="M133.33,19.41H115.08v2.1h18.27v-2.1ZM115.1,21.49h0"/><path class="cls-2" d="M129.84,10.58c-.81-.82-1.54-1.62-2.17-2.4a21.67,21.67,0,0,1-1.58-2.08,6.23,6.23,0,0,1-.73-1.35l-.07-.19H123l-.06.19a7.27,7.27,0,0,1-.73,1.35,25.58,25.58,0,0,1-1.58,2.08c-.64.78-1.37,1.58-2.18,2.4a28.45,28.45,0,0,1-2.53,2.28l-.2.15,1.92,1.51.12-.1c.14-.1.48-.39,1-.81s1.14-1,1.83-1.68,1.38-1.42,2.09-2.27a18.54,18.54,0,0,0,1.47-2l0,0,0,0a18.54,18.54,0,0,0,1.47,2,29.77,29.77,0,0,0,2.1,2.27c.69.68,1.3,1.24,1.82,1.68s.84.71,1,.81l.12.1L132.57,13l-.19-.15A28.57,28.57,0,0,1,129.84,10.58Z"/><path class="cls-2" d="M189.24,22.67h0Z"/><path class="cls-2" d="M188.71,22.64l-.13,0Z"/><path class="cls-2" d="M189,22.66h0Z"/><path class="cls-2" d="M188.37,22.59l-.1,0Z"/><path class="cls-3" d="M189.85,22.63h0Z"/><path class="cls-3" d="M190.17,22.58l-.11,0Z"/><path class="cls-2" d="M166.86,4.53h-2.52a20.31,20.31,0,0,1-5.22,8.33l1.74,1.46a23.52,23.52,0,0,0,4.74-6.43,23.67,23.67,0,0,0,4.75,6.43l1.73-1.46A20.31,20.31,0,0,1,166.86,4.53Z"/><path class="cls-2" d="M188.17,6.59H192v-2H180.7v2h3.85a19.24,19.24,0,0,1-4.39,6.4l1.74,1.46a21.58,21.58,0,0,0,4.46-6.15,21.79,21.79,0,0,0,4.46,6.15L192.56,13A19.24,19.24,0,0,1,188.17,6.59Z"/><path class="cls-2" d="M151.72,4.56h-2.45v5.86h-5.4V4.56h-2.46V19.4h10.31Zm-2.45,7.84v5h-5.4v-5Z"/><rect class="cls-2" x="154.89" y="4.14" width="2.43" height="20.54"/><polygon class="cls-2" points="178.8 8.88 175.71 8.88 175.71 4.14 173.28 4.14 173.28 15.65 175.71 15.65 175.71 10.93 178.8 10.93 178.8 8.88"/><polygon class="cls-2" points="199.2 8.88 196.12 8.88 196.12 4.14 193.69 4.14 193.69 15.65 196.12 15.65 196.12 10.93 199.2 10.93 199.2 8.88"/><path class="cls-2" d="M170.1,16.44c-3.1,0-5.61,1.64-5.61,4.27S167,25,170.1,25s5.61-1.5,5.61-4.26S173.2,16.44,170.1,16.44Zm0,6.66c-1.74,0-3.15-.87-3.15-2.39s1.41-2.4,3.15-2.4,3.15.9,3.15,2.4S171.84,23.1,170.1,23.1Z"/><path class="cls-2" d="M190.53,16.44c-3.1,0-5.61,1.64-5.61,4.27S187.43,25,190.53,25s5.61-1.5,5.61-4.26S193.63,16.44,190.53,16.44Zm0,6.66c-1.74,0-3.15-.87-3.15-2.39s1.41-2.4,3.15-2.4,3.15.9,3.15,2.4S192.27,23.1,190.53,23.1Z"/></svg>