<svg id="레이어_1" data-name="레이어 1" xmlns="http://www.w3.org/2000/svg" viewBox="0 0 97.27 27"><defs><style>.cls-1{fill:#003d9b;}.cls-2{fill:none;}</style></defs><g id="레이어_2" data-name="레이어 2"><g id="Basic_System" data-name="Basic System"><path class="cls-1" d="M27.52,17.89h0a6.6,6.6,0,0,1-.64-.36,4.1,4.1,0,0,1-1.65-3.59,4.26,4.26,0,0,1,1.48-3.51,6.68,6.68,0,0,1,4.21-1.28h1.63a4.18,4.18,0,0,0,2-.41,1.21,1.21,0,0,0,.6-1.13,1.24,1.24,0,0,0-.69-1.25,8.45,8.45,0,0,0-2.7-.23h-5V3.27h5.61A13.1,13.1,0,0,1,35,3.5a5.8,5.8,0,0,1,2,.76,3.48,3.48,0,0,1,1.29,1.4,4.53,4.53,0,0,1,.43,2V17.89ZM29.69,12a1.38,1.38,0,0,0,.09,2.76H35.3V11.34l-.39.18-.24.08-.23.07a6.88,6.88,0,0,1-.89.24,6.4,6.4,0,0,1-.87.08Z"/><path class="cls-2" d="M75.76,17.87h-.64a3.52,3.52,0,0,1-1.25-.19,1.72,1.72,0,0,1-1.09-1.29,4.32,4.32,0,0,1-.1-1V7.31H69.52V16.1a5.24,5.24,0,0,0,.32,1.79,4.94,4.94,0,0,0,.94,1.57,4.68,4.68,0,0,0,1.56,1.11,5.37,5.37,0,0,0,2.21.42h1.79a5.4,5.4,0,0,0,2.21-.42,4.58,4.58,0,0,0,1.56-1.11,4.83,4.83,0,0,0,.94-1.57,5,5,0,0,0,.32-1.79V7.31H78.19v8.1a4.45,4.45,0,0,1-.08,1,1.92,1.92,0,0,1-.36.78,1.8,1.8,0,0,1-.74.53A3.52,3.52,0,0,1,75.76,17.87Z"/><rect class="cls-2" x="61.74" y="0.81" width="3.23" height="20.19"/><path class="cls-2" d="M51,13.91a1.93,1.93,0,0,0,.58-1.49V8.72A1.89,1.89,0,0,0,51,7.25,3.24,3.24,0,0,0,49,6.68H46.81A1.85,1.85,0,0,0,45,8.53v6H49A3.3,3.3,0,0,0,51,13.91Z"/><path class="cls-2" d="M54.9,12.92a6.57,6.57,0,0,1-.15,1.25,5.58,5.58,0,0,1-.18.58,4.78,4.78,0,0,1-1.11,1.69,4.7,4.7,0,0,1-1.7,1,9.4,9.4,0,0,1-2.74.38H45V23.5l2.78,1.93V21H51a9,9,0,0,0,2.68-.37,4.54,4.54,0,0,0,2.71-2.71,4.11,4.11,0,0,0,.17-.57,6.45,6.45,0,0,0,.22-1.7v-3.7a6.51,6.51,0,0,0-.1-1,6,6,0,0,0-.13-.72c0-.19-.11-.39-.18-.58a4.67,4.67,0,0,0-1-1.62,5,5,0,0,0-.5-.42c0,.2,0,.4.06.6Z"/><path class="cls-2" d="M95.58,14.06a3.26,3.26,0,0,0-1.17-.88,4.28,4.28,0,0,0-1.66-.3H89.69a1.08,1.08,0,0,1-.88-.44,1.54,1.54,0,0,1-.36-1,1.5,1.5,0,0,1,.09-.52,1.42,1.42,0,0,1,.25-.49,1.21,1.21,0,0,1,.42-.36,1.31,1.31,0,0,1,.65-.13h5.35V7.28h-6a3.91,3.91,0,0,0-1.58.31,3.28,3.28,0,0,0-1.16.89,4,4,0,0,0-.72,1.29,4.78,4.78,0,0,0-.23,1.55,6.49,6.49,0,0,0,.16,1.52,3.13,3.13,0,0,0,1.8,2.27,4.29,4.29,0,0,0,1.93.37h2.46a2.35,2.35,0,0,1,.64.09,1.68,1.68,0,0,1,.56.26,1.27,1.27,0,0,1,.42.47,1.45,1.45,0,0,1,.16.65h0a1.27,1.27,0,0,1-.59,1.1,2,2,0,0,1-1.19.36h-6.1V21h7a3.81,3.81,0,0,0,2.68-1.09,3.49,3.49,0,0,0,.78-1.22,4.35,4.35,0,0,0,.29-1.59V17a5.73,5.73,0,0,0-.24-1.65A3.36,3.36,0,0,0,95.58,14.06Z"/><path class="cls-1" d="M60.94,21.78h4.83V0H60.94Zm.8-21H65V21H61.74Z"/><path class="cls-1" d="M97,15.16a4.2,4.2,0,0,0-.85-1.6,3.83,3.83,0,0,0-1.44-1.08,4.76,4.76,0,0,0-1.94-.38H89.73a.31.31,0,0,1-.27-.17.71.71,0,0,1-.19-.48.93.93,0,0,1,0-.29.73.73,0,0,1,.14-.26.36.36,0,0,1,.16-.14.75.75,0,0,1,.26,0H96V6.51H89.16a4.44,4.44,0,0,0-1.93.38A4.1,4.1,0,0,0,85.79,8a4.8,4.8,0,0,0-.85,1.57,6,6,0,0,0-.28,1.78A8,8,0,0,0,84.84,13a4.2,4.2,0,0,0,.74,1.62,4,4,0,0,0,1.48,1.18,5,5,0,0,0,2.29.45h2.46a1.67,1.67,0,0,1,.44.06.89.89,0,0,1,.31.15.55.55,0,0,1,.19.21.66.66,0,0,1,.07.3.54.54,0,0,1-.25.48,1.36,1.36,0,0,1-.76.23H85v4.08h7.78a4.66,4.66,0,0,0,1.77-.35,4.53,4.53,0,0,0,1.45-1,4.2,4.2,0,0,0,1-1.49,5,5,0,0,0,.34-1.87V17A6.27,6.27,0,0,0,97,15.16Zm-.51,1.93a4.26,4.26,0,0,1-.28,1.59,3.43,3.43,0,0,1-.79,1.22,4,4,0,0,1-1.2.8,3.94,3.94,0,0,1-1.48.29h-7v-2.5h6.09a2.15,2.15,0,0,0,1.2-.37,1.29,1.29,0,0,0,.59-1.1h0a1.6,1.6,0,0,0-.16-.65A1.36,1.36,0,0,0,93,15.9a1.68,1.68,0,0,0-.56-.26,2.37,2.37,0,0,0-.65-.09H89.38a4.29,4.29,0,0,1-1.93-.37,3.16,3.16,0,0,1-1.81-2.27,7.77,7.77,0,0,1-.16-1.52,5.07,5.07,0,0,1,.24-1.55,4,4,0,0,1,.72-1.29,3.28,3.28,0,0,1,1.16-.89,3.91,3.91,0,0,1,1.58-.31h6V10H89.86a1.29,1.29,0,0,0-.64.12,1.25,1.25,0,0,0-.42.37,1.72,1.72,0,0,0-.26.48,1.89,1.89,0,0,0-.08.53,1.55,1.55,0,0,0,.35,1,1.14,1.14,0,0,0,.89.44h3a4.08,4.08,0,0,1,1.65.32,3.23,3.23,0,0,1,1.17.87,3.53,3.53,0,0,1,.69,1.33,5.73,5.73,0,0,1,.24,1.65Z"/><path class="cls-1" d="M77.39,15.41a4.33,4.33,0,0,1-.07.8,1,1,0,0,1-.2.44,1,1,0,0,1-.41.29,2.76,2.76,0,0,1-.95.13h-.64a2.8,2.8,0,0,1-1-.13,1,1,0,0,1-.41-.29,1,1,0,0,1-.2-.44,4.33,4.33,0,0,1-.07-.8V6.51H68.71V16.1a6,6,0,0,0,.37,2.06A5.69,5.69,0,0,0,70.21,20,5.28,5.28,0,0,0,72,21.25a6,6,0,0,0,2.54.49h1.79a6,6,0,0,0,2.54-.49A5.32,5.32,0,0,0,80.73,20a5.6,5.6,0,0,0,1.09-1.83,5.83,5.83,0,0,0,.38-2.06V6.51H77.42Zm.36,1.74a1.92,1.92,0,0,0,.36-.78,4.45,4.45,0,0,0,.08-1V7.31h3.17V16.1A5.2,5.2,0,0,1,81,17.89a4.57,4.57,0,0,1-2.5,2.68,5.4,5.4,0,0,1-2.21.42h-1.8a5.43,5.43,0,0,1-2.21-.42,4.64,4.64,0,0,1-1.55-1.11,4.94,4.94,0,0,1-.94-1.57,5.25,5.25,0,0,1-.33-1.79V7.31h3.17v8.1a5.2,5.2,0,0,0,.09,1,1.71,1.71,0,0,0,1.1,1.28,3.12,3.12,0,0,0,1.25.19h.64A3.12,3.12,0,0,0,77,17.65,1.74,1.74,0,0,0,77.75,17.15Z"/><path class="cls-1" d="M48.54,27V21.78H51a9.32,9.32,0,0,0,3-.42,5.1,5.1,0,0,0,1.93-1.23,5.33,5.33,0,0,0,1.24-1.93c.07-.2.14-.42.2-.64a7.61,7.61,0,0,0,.24-1.9V11.93a9.3,9.3,0,0,0-.09-1,4.3,4.3,0,0,0-.16-.81,3.79,3.79,0,0,0-.21-.65,5.29,5.29,0,0,0-1.24-1.93,5.41,5.41,0,0,0-1.32-1A4.42,4.42,0,0,1,54.7,7c0,.21.09.43.12.64a4.93,4.93,0,0,1,.49.42,4.59,4.59,0,0,1,1.08,1.58,5.58,5.58,0,0,1,.18.58,5.52,5.52,0,0,1,.11.71,6.22,6.22,0,0,1,.08,1v3.7a6.45,6.45,0,0,1-.22,1.7,4.11,4.11,0,0,1-.17.57,4.57,4.57,0,0,1-2.69,2.73A9.39,9.39,0,0,1,51,21H47.73v4.46L45,23.51v1"/><path class="cls-1" d="M54.84,7.64A4.9,4.9,0,0,0,54.73,7a3.68,3.68,0,0,0-.15-.47V6.4a4.69,4.69,0,0,0-1.12-1.66,5,5,0,0,0-1.71-1.08A9,9,0,0,0,49,3.27H46.15A4.63,4.63,0,0,0,41.52,7.9V22.07l2.4,1.69,1,.72V17.87h4a9.4,9.4,0,0,0,2.74-.38,4.66,4.66,0,0,0,1.71-1,4.61,4.61,0,0,0,1.08-1.7q.12-.28.21-.57a6.51,6.51,0,0,0,.18-1.24V8.23C54.89,8,54.87,7.83,54.84,7.64Zm-3.31,4.78A2,2,0,0,1,51,13.91a3.35,3.35,0,0,1-1.94.58H45v-6a1.85,1.85,0,0,1,1.85-1.85H49A3.24,3.24,0,0,1,51,7.25a1.89,1.89,0,0,1,.58,1.47Z"/><path class="cls-1" d="M18.85,17.89V9A4.22,4.22,0,0,0,18.77,8a1.62,1.62,0,0,0-.33-.73,1.6,1.6,0,0,0-.69-.48,3.81,3.81,0,0,0-1.26-.18,3.06,3.06,0,0,0-1.12.18,1.63,1.63,0,0,0-.65.48,1.81,1.81,0,0,0-.31.71,4.81,4.81,0,0,0-.09.93v8.94H10.83V9A4.9,4.9,0,0,0,10.75,8a1.78,1.78,0,0,0-.32-.73,1.59,1.59,0,0,0-.64-.48,3.17,3.17,0,0,0-1.14-.18,5.54,5.54,0,0,0-1.4.18,1.6,1.6,0,0,0-.69.48A1.55,1.55,0,0,0,6.21,8a4.23,4.23,0,0,0-.1.94v8.91H2.62V7.28a.76.76,0,0,0-.76-.76H0V3.27H9.1a5.74,5.74,0,0,1,2.05.35,4.67,4.67,0,0,1,1.33.77l.16.14.17-.14a4.9,4.9,0,0,1,1.4-.77,5.85,5.85,0,0,1,2.07-.35h.81a5.64,5.64,0,0,1,2.23.43A4.94,4.94,0,0,1,21,4.84a5.1,5.1,0,0,1,1,1.6h0a5.25,5.25,0,0,1,.34,1.83v9.62Z"/></g></g></svg>