<svg id="레이어_1" data-name="레이어 1" xmlns="http://www.w3.org/2000/svg" viewBox="0 0 199.6 27"><defs><style>.cls-1{fill:#231815;}</style></defs><path class="cls-1" d="M78.48,8.09h-9L72.06,0H64l-8.7,27H72.05a8.94,8.94,0,0,0,8.49-6.22L82.73,14A4.5,4.5,0,0,0,78.48,8.09Zm-3.72,5.67L73,19.37a4.47,4.47,0,0,1-4.25,3.11h-3.9L68,12.59h5.92A.89.89,0,0,1,74.76,13.76Z"/><polygon class="cls-1" points="92.59 0 90.85 5.4 98.88 5.4 100.62 0 92.59 0"/><polygon class="cls-1" points="83.89 26.98 91.92 26.98 98.01 8.09 89.98 8.09 83.89 26.98"/><path class="cls-1" d="M114.11,0h-8l-6.8,21.09A4.49,4.49,0,0,0,103.53,27h8.92l1.45-4.5h-5.81a.89.89,0,0,1-.85-1.17l2.81-8.72h5.41l1.45-4.49h-5.4Z"/><path class="cls-1" d="M22.94,9.41,31.72,0H22.31L15.06,22.48H9a.89.89,0,0,1-.85-1.17L15.06,0H7L.22,21.1A4.49,4.49,0,0,0,4.46,27H21.64L27.73,8.09Z"/><path class="cls-1" d="M52.66,0H34.2l2.72,9.41L33,8.09,26.89,27h8l2.9-9h8.69A8.93,8.93,0,0,0,55,11.77l1.9-5.89A4.48,4.48,0,0,0,52.66,0ZM48.93,5.67l-1.52,4.71a4.46,4.46,0,0,1-4.24,3.11h-3.9l2.9-9h5.91A.89.89,0,0,1,48.93,5.67Z"/><polygon class="cls-1" points="149.12 1.35 144.87 18.78 137.78 1.35 132.07 1.35 125.83 26.98 130.85 26.98 135.18 9.17 142.2 26.98 147.91 26.98 154.14 1.35 149.12 1.35"/><polygon class="cls-1" points="152.06 26.97 157.69 26.97 160.27 16.39 171.69 16.39 172.75 12.03 161.34 12.03 162.86 5.88 175.47 5.88 176.54 1.35 158.3 1.35 152.06 26.97"/><polygon class="cls-1" points="179.55 1.35 178.49 5.88 185.71 5.88 180.54 26.98 186.18 26.98 191.35 5.88 198.53 5.88 199.6 1.35 179.55 1.35"/></svg>