<svg id="레이어_1" data-name="레이어 1" xmlns="http://www.w3.org/2000/svg" viewBox="0 0 16.04 18"><path d="M9,9H9L2.16.47S.35-1,0,1.22V16.78c.35,2.2,2.16.75,2.16.75L9,9Z"/><polygon points="11.53 5.96 3.87 1.5 9.49 8.52 11.53 5.96"/><polygon points="3.87 16.51 11.53 12.04 9.49 9.49 3.87 16.51"/><path d="M16,9h0A1.05,1.05,0,0,0,16,8.67a1.22,1.22,0,0,0-.39-.62,2.19,2.19,0,0,0-.7-.48c-.79-.35-2.39-1.28-2.39-1.28L10.31,9l2.18,2.71s1.61-.91,2.39-1.28a2.49,2.49,0,0,0,.61-.41A1.22,1.22,0,0,0,16,9.17,1.29,1.29,0,0,0,16,9Z"/></svg>