<svg id="레이어_1" data-name="레이어 1" xmlns="http://www.w3.org/2000/svg" xmlns:xlink="http://www.w3.org/1999/xlink" viewBox="0 0 480.96 540.47"><defs><style>.cls-1,.cls-2,.cls-4{fill:none;stroke-linecap:round;}.cls-1{stroke:#f7f7f8;}.cls-1,.cls-2{stroke-linejoin:round;stroke-width:14px;}.cls-2{stroke:url(#무제_그라디언트_56);}.cls-3{fill:#e0e2e7;}.cls-10,.cls-12,.cls-13,.cls-3,.cls-5,.cls-7{fill-rule:evenodd;}.cls-4{stroke:#c3c9d8;stroke-width:4px;stroke-dasharray:2 8;}.cls-5{fill:#fbfbfc;}.cls-6{fill:url(#무제_그라디언트_2);}.cls-7{fill:#fff;}.cls-8{fill:url(#무제_그라디언트_2-2);}.cls-9{fill:url(#무제_그라디언트_2-3);}.cls-10{fill:#d0d3da;}.cls-11{fill:url(#무제_그라디언트_66);}.cls-12{fill:#0e1320;}.cls-13{fill:#e21414;}</style><linearGradient id="무제_그라디언트_56" x1="13.1" y1="288.91" x2="477.47" y2="288.91" gradientUnits="userSpaceOnUse"><stop offset="0" stop-color="#550094"/><stop offset="0.99" stop-color="#e21414"/></linearGradient><linearGradient id="무제_그라디언트_2" x1="-1319.05" y1="2780.98" x2="-1319.31" y2="2781.95" gradientTransform="matrix(100, 0, 0, -100, 132133.33, 278188.81)" gradientUnits="userSpaceOnUse"><stop offset="0" stop-color="#b2b9cc"/><stop offset="1" stop-color="#e9edf4"/></linearGradient><linearGradient id="무제_그라디언트_2-2" x1="-1315.96" y1="2786.55" x2="-1316.22" y2="2787.51" gradientTransform="matrix(80, 0, 0, -80, 105344.45, 223171.56)" xlink:href="#무제_그라디언트_2"/><linearGradient id="무제_그라디언트_2-3" x1="-1316.06" y1="2786.38" x2="-1316.31" y2="2787.35" gradientTransform="matrix(80, 0, 0, -80, 105703.12, 222993.56)" xlink:href="#무제_그라디언트_2"/><linearGradient id="무제_그라디언트_66" x1="326.31" y1="540.47" x2="326.31" y2="396" gradientUnits="userSpaceOnUse"><stop offset="0" stop-color="#fff"/><stop offset="0.99" stop-color="#fff" stop-opacity="0"/></linearGradient></defs><path class="cls-1" d="M23.37,407l91.29-83.84,136.58,79.37L473.75,187.18"/><path class="cls-2" d="M20.1,398.82,111.38,315,248,394.35,470.47,179"/><path class="cls-3" d="M332.49,228.85s15.14-15.91,20.93-16,15.5,4.36,13.55,19.71-7,39.94,3.69,55.41,24.64,37.73,23.4,70.19-10.9,66.5-17.24,72.66c-5.58,6.16-3.69,7.39-3.69,7.39l28.79,102.27-118.69-8.68L262.3,456.67s-26.62-10-35.72-46.8S330,232.55,330,232.55"/><path class="cls-4" d="M14.87,299.45S91-92.59,479.23,81.24"/><path class="cls-5" d="M219.41,3a50,50,0,1,1-50,50A50,50,0,0,1,219.41,3Z"/><path class="cls-6" d="M219.41,3a50,50,0,1,1-50,50A50,50,0,0,1,219.41,3Z"/><path class="cls-7" d="M237.41,70h-3a2,2,0,0,1-2-2V38a2,2,0,0,1,2-2h3a2,2,0,0,1,2,2V68A2,2,0,0,1,237.41,70Zm-11,0h-3a2,2,0,0,1-2-2V46a2,2,0,0,1,2-2h3a2,2,0,0,1,2,2V68A2,2,0,0,1,226.41,70Zm-11,0h-3a2,2,0,0,1-2-2V52a2,2,0,0,1,2-2h3a2,2,0,0,1,2,2V68A2,2,0,0,1,215.41,70Zm-11,0h-3a2,2,0,0,1-2-2V59a2,2,0,0,1,2-2h3a2,2,0,0,1,2,2v9A2,2,0,0,1,204.41,70Z"/><path class="cls-5" d="M58.41,178c22.91,0,40,17.91,40,40,0,22.91-17.09,40-40,40-22.09,0-40-17.09-40-40A40,40,0,0,1,58.41,178Z"/><path class="cls-8" d="M58.41,178c22.91,0,40,17.91,40,40,0,22.91-17.09,40-40,40-22.09,0-40-17.09-40-40A40,40,0,0,1,58.41,178Z"/><path class="cls-7" d="M74.37,226.19a2,2,0,0,1-.07.35,1.5,1.5,0,0,1-.15.25,1.2,1.2,0,0,0-.17.53c-.08-.2-.18-.14-.29-.08a1.09,1.09,0,0,1-.17.13l-13.61,6.18V219.82l14.5-7.7V226C74.41,226.52,74.38,226.11,74.37,226.19ZM42.73,208.87a.61.61,0,0,1,.07-.1.48.48,0,0,1,.09-.11,1.52,1.52,0,0,1,.41-.29l14.5-6.59a1.52,1.52,0,0,1,1.22,0l14.5,6.59a1.52,1.52,0,0,1,.41.29.48.48,0,0,1,.09.11l.07.09L58.4,217.19Zm14.18,24.68L43.3,227.37a1.09,1.09,0,0,1-.17-.13c-.11-.06-.21-.12-.3.08a1.12,1.12,0,0,0-.16-.53,1.5,1.5,0,0,1-.15-.25c.56-.11.47-.23.3-.35s-.41.33-.41-.21V212.14l14.5,7.69Z"/><path class="cls-9" d="M410.66,13c22.91,0,40,17.91,40,40,0,22.91-17.09,40-40,40-22.09,0-40-17.09-40-40A40,40,0,0,1,410.66,13Z"/><path class="cls-7" d="M420.22,69.23H401.35A4.34,4.34,0,0,1,396.92,65V53.37a2.16,2.16,0,0,1,2.22-2.11h.66c.67.66.17-.34.17-.53l0-1.06c-.15-3.31-.29-7.07,2.42-9.72,2-2,4.84-3,8.41-3s6.41,1,8.42,3c2.71,2.65,2.7,6.41,2.68,9.73v1c0,.19-.05,1.19-.11.53h.66a2,2,0,0,1,2.22,2.11V65C424.65,67.33,423.46,69.23,420.22,69.23Zm-1.67-19.57c0-2.84,0-5.77-1.74-7.5-1.36-1.33-3.38-2-6-2s-4.66.67-5.13,2C403,43.89,403,46.82,403,49.66v1.07c0,.19,0,1.19-.11.53h16.25c-.56.66-.61-.34-.61-.53Z"/><path class="cls-3" d="M226.68,231.32l-24.63-23.39s-9.06-6.05-19.7,2.46c-10.12,8.51,0,17.24,0,17.24l33.25,40.64Z"/><path class="cls-10" d="M307.71,512.67c1.12-33.43,57.51-44.9,53.23-46.07-7.88-2-6.56-11.89-6.56-11.89s-.79-135,0-150.09c-.46-8.24,6.26-6.45,2.72-10.4-3.8-3-2.72-10.4-2.72-10.4l-2.29-70.69c-6.52,2.09-19.51,15.73-19.51,15.73l-2.46,3.7S217.59,373.11,226.68,409.88s35.71,46.8,35.71,46.8l20.94,75.12,24.46,3.47C307.46,527.08,307.39,519.32,307.71,512.67Z"/><rect class="cls-11" x="189.91" y="396" width="272.81" height="144.47"/><path class="cls-12" d="M212.05,175.91H332.66a10.15,10.15,0,0,1,10,10V452.84a10.15,10.15,0,0,1-10,10H212.05a10,10,0,0,1-10-10V185.91A10,10,0,0,1,212.05,175.91Z"/><path class="cls-7" d="M211.9,198.75H332.58V440.67H211.9Z"/><path class="cls-13" d="M287,351.14V320.42l9.58-9.45,3.51,3.51a6.37,6.37,0,0,0,4.47,1.79c.3,0,.65,0,1.57-.06v34.93Zm17.86-39.57c-.12-.46-.21-.44.45-.44-1.05,0-1.31.17-1.5-.29l-6.47-7.12L272.67,327.1c-.1,0-.05.07-.38.07a2.78,2.78,0,0,1-.39-.07l-9.6-9.47-15.24,14.91a.58.58,0,0,1-.78,0L239.56,326a.54.54,0,0,1,0-.76l22.36-21.85a.55.55,0,0,1,.38-.16c.51,0,.29.06.39.16l9.6,9.39L289,296.42l-7.11-6.91a.88.88,0,0,1,.71-1.53h22a.81.81,0,0,1,.6.18c.18.19.94.33.94.59v21.4C306.11,310.55,305.21,310.9,304.84,311.57Zm-58.32,26.32a6,6,0,0,0,4.15-1.66l7.17-7v21.89H239.4v-18l3.86,3.11C243.59,337.3,245,337.89,246.52,337.89Zm25.68-5.54a6.06,6.06,0,0,0,4.2-1.66l5.34-5.12v25.57H263.08V325.73l5,5A5.79,5.79,0,0,0,272.2,332.35Z"/><path class="cls-3" d="M219.29,316.29s6.32-7.6,1.23-16c-5.46-9-17.24-28.33-17.24-28.33s-10-8.7-20.93,0c-10.36,8.88-1.23,20.94-1.23,20.94l24.63,24.62S214.05,321.51,219.29,316.29Z"/><path class="cls-3" d="M215.6,332.3,207,324.91s-10.78-6.18-19.71,4.93c-8.1,10.08,1.39,19,2.47,19.7s6.15,4.93,6.15,4.93,10.78,4.46,18.48-4.93C220.59,342,217.56,334.42,215.6,332.3Z"/><path class="cls-3" d="M214.92,365.44l-9.08-7s-10.77-6.61-19.7,4.49c-8.11,10.58,1.39,19,2.46,19.71s6.16,4.92,6.16,4.92,10.77,5,18.47-4.92A13.77,13.77,0,0,0,214.92,365.44Z"/></svg>