<svg width="573" height="403" viewBox="0 0 573 403" fill="none" xmlns="http://www.w3.org/2000/svg">
<path fill-rule="evenodd" clip-rule="evenodd" d="M486.82 266.42C484.516 266.42 482.263 265.737 480.348 264.457C478.432 263.177 476.939 261.357 476.057 259.228C475.175 257.1 474.944 254.757 475.394 252.497C475.843 250.237 476.953 248.161 478.582 246.532C480.211 244.903 482.287 243.793 484.547 243.344C486.807 242.894 489.15 243.125 491.278 244.007C493.407 244.889 495.227 246.382 496.507 248.298C497.787 250.213 498.47 252.466 498.47 254.77C498.467 257.859 497.239 260.821 495.055 263.005C492.871 265.189 489.909 266.417 486.82 266.42V266.42ZM486.82 212.48C480.39 212.48 475.17 206.83 475.17 200.4C475.17 197.31 476.397 194.347 478.582 192.162C480.767 189.977 483.73 188.75 486.82 188.75C489.91 188.75 492.873 189.977 495.058 192.162C497.243 194.347 498.47 197.31 498.47 200.4C498.47 206.83 493.26 212.48 486.82 212.48V212.48ZM486.82 157.68C484.504 157.682 482.24 156.993 480.317 155.703C478.394 154.413 476.898 152.58 476.021 150.437C475.144 148.293 474.925 145.938 475.392 143.669C475.858 141.401 476.99 139.323 478.643 137.701C480.295 136.078 482.393 134.984 484.669 134.559C486.946 134.133 489.297 134.395 491.424 135.311C493.551 136.227 495.357 137.756 496.612 139.702C497.867 141.649 498.514 143.925 498.47 146.24C498.425 149.297 497.177 152.212 494.996 154.354C492.815 156.496 489.877 157.691 486.82 157.68V157.68ZM461.19 293.61C458.881 293.612 456.624 292.929 454.704 291.646C452.784 290.364 451.288 288.541 450.406 286.407C449.523 284.274 449.294 281.927 449.747 279.663C450.199 277.399 451.314 275.321 452.949 273.691C454.585 272.061 456.667 270.954 458.932 270.509C461.198 270.064 463.544 270.301 465.675 271.191C467.805 272.081 469.623 273.583 470.899 275.507C472.174 277.432 472.85 279.691 472.84 282C472.829 285.083 471.597 288.036 469.414 290.212C467.23 292.388 464.273 293.61 461.19 293.61V293.61ZM461.19 266.42C458.886 266.42 456.633 265.737 454.718 264.457C452.802 263.177 451.309 261.357 450.427 259.228C449.545 257.1 449.314 254.757 449.764 252.497C450.213 250.237 451.323 248.161 452.952 246.532C454.581 244.903 456.657 243.793 458.917 243.344C461.177 242.894 463.519 243.125 465.648 244.007C467.777 244.889 469.596 246.382 470.877 248.298C472.157 250.213 472.84 252.466 472.84 254.77C472.84 257.86 471.613 260.823 469.428 263.008C467.243 265.193 464.28 266.42 461.19 266.42V266.42ZM461.19 212.48C454.75 212.48 449.54 206.83 449.54 200.4C449.54 197.31 450.767 194.347 452.952 192.162C455.137 189.977 458.1 188.75 461.19 188.75C464.28 188.75 467.243 189.977 469.428 192.162C471.613 194.347 472.84 197.31 472.84 200.4C472.84 206.83 467.62 212.48 461.19 212.48V212.48ZM461.19 184.86C458.886 184.86 456.633 184.177 454.718 182.897C452.802 181.617 451.309 179.797 450.427 177.668C449.545 175.539 449.314 173.197 449.764 170.937C450.213 168.677 451.323 166.601 452.952 164.972C454.581 163.343 456.657 162.233 458.917 161.784C461.177 161.334 463.519 161.565 465.648 162.447C467.777 163.329 469.596 164.822 470.877 166.738C472.157 168.653 472.84 170.906 472.84 173.21C472.841 174.74 472.541 176.256 471.956 177.67C471.371 179.084 470.513 180.369 469.431 181.451C468.349 182.533 467.064 183.391 465.65 183.976C464.236 184.561 462.72 184.861 461.19 184.86V184.86ZM461.19 103.3C454.75 103.3 449.54 98.86 449.54 91.65C449.54 88.5602 450.767 85.597 452.952 83.4122C455.137 81.2274 458.1 80 461.19 80C464.28 80 467.243 81.2274 469.428 83.4122C471.613 85.597 472.84 88.5602 472.84 91.65C472.84 98.86 467.62 103.3 461.19 103.3V103.3ZM461.19 75.3C454.75 75.3 449.54 70.86 449.54 63.65C449.54 60.5602 450.767 57.597 452.952 55.4122C455.137 53.2274 458.1 52 461.19 52C464.28 52 467.243 53.2274 469.428 55.4122C471.613 57.597 472.84 60.5602 472.84 63.65C472.84 70.86 467.62 75.3 461.19 75.3V75.3ZM435.55 293.61C433.242 293.61 430.985 292.925 429.067 291.641C427.148 290.358 425.654 288.534 424.773 286.4C423.892 284.267 423.664 281.92 424.118 279.657C424.572 277.394 425.687 275.316 427.323 273.687C428.959 272.059 431.041 270.952 433.306 270.508C435.571 270.064 437.917 270.302 440.047 271.192C442.177 272.082 443.994 273.584 445.269 275.508C446.544 277.433 447.22 279.692 447.21 282C447.197 285.084 445.962 288.037 443.777 290.213C441.592 292.388 438.634 293.61 435.55 293.61V293.61ZM435.55 157.68C433.235 157.68 430.972 156.99 429.05 155.699C427.128 154.407 425.634 152.573 424.758 150.43C423.882 148.286 423.665 145.931 424.133 143.663C424.601 141.396 425.733 139.319 427.386 137.697C429.039 136.075 431.137 134.983 433.413 134.558C435.689 134.133 438.04 134.396 440.167 135.312C442.293 136.228 444.098 137.757 445.353 139.703C446.607 141.649 447.254 143.925 447.21 146.24C447.165 149.298 445.915 152.215 443.732 154.357C441.549 156.5 438.609 157.693 435.55 157.68ZM435.55 103.3C429.12 103.3 423.9 98.86 423.9 91.65C423.989 88.618 425.256 85.74 427.432 83.6267C429.608 81.5135 432.522 80.3314 435.555 80.3314C438.588 80.3314 441.502 81.5135 443.678 83.6267C445.854 85.74 447.121 88.618 447.21 91.65C447.21 98.86 442 103.3 435.55 103.3V103.3ZM409.92 320.79C407.616 320.79 405.363 320.107 403.448 318.827C401.532 317.547 400.039 315.727 399.157 313.598C398.275 311.47 398.044 309.127 398.494 306.867C398.943 304.607 400.053 302.531 401.682 300.902C403.312 299.273 405.387 298.163 407.647 297.714C409.907 297.264 412.25 297.495 414.378 298.377C416.507 299.259 418.327 300.752 419.607 302.668C420.887 304.583 421.57 306.836 421.57 309.14C421.57 312.23 420.343 315.193 418.158 317.378C415.973 319.563 413.01 320.79 409.92 320.79V320.79ZM409.92 157.68C407.604 157.682 405.34 156.993 403.417 155.703C401.494 154.413 399.998 152.58 399.121 150.437C398.244 148.293 398.025 145.938 398.492 143.669C398.958 141.401 400.09 139.323 401.743 137.701C403.395 136.078 405.493 134.984 407.769 134.559C410.046 134.133 412.397 134.395 414.524 135.311C416.651 136.227 418.457 137.756 419.712 139.702C420.967 141.649 421.614 143.925 421.57 146.24C421.525 149.297 420.277 152.212 418.096 154.354C415.915 156.496 412.977 157.691 409.92 157.68ZM409.92 103.3C403.49 103.3 398.27 98.86 398.27 91.65C398.27 88.5602 399.497 85.597 401.682 83.4122C403.867 81.2274 406.83 80 409.92 80C413.01 80 415.973 81.2274 418.158 83.4122C420.343 85.597 421.57 88.5602 421.57 91.65C421.57 98.86 416.36 103.3 409.92 103.3V103.3ZM384.29 157.68C381.974 157.682 379.71 156.993 377.787 155.703C375.864 154.413 374.368 152.58 373.491 150.437C372.614 148.293 372.395 145.938 372.862 143.669C373.328 141.401 374.46 139.323 376.113 137.701C377.765 136.078 379.863 134.984 382.139 134.559C384.416 134.133 386.767 134.395 388.894 135.311C391.021 136.227 392.827 137.756 394.082 139.702C395.337 141.649 395.984 143.925 395.94 146.24C395.895 149.297 394.647 152.212 392.466 154.354C390.285 156.496 387.347 157.691 384.29 157.68V157.68ZM384.29 103.3C377.85 103.3 372.64 98.86 372.64 91.65C372.64 90.1201 372.941 88.6052 373.527 87.1917C374.112 85.7783 374.97 84.494 376.052 83.4122C377.134 82.3304 378.418 81.4723 379.832 80.8868C381.245 80.3013 382.76 80 384.29 80C385.82 80 387.335 80.3013 388.748 80.8868C390.162 81.4723 391.446 82.3304 392.528 83.4122C393.61 84.494 394.468 85.7783 395.053 87.1917C395.639 88.6052 395.94 90.1201 395.94 91.65C395.94 98.86 390.72 103.3 384.29 103.3V103.3ZM384.29 75.3C377.85 75.3 372.64 70.86 372.64 63.65C372.64 62.1201 372.941 60.6052 373.527 59.1917C374.112 57.7783 374.97 56.494 376.052 55.4122C377.134 54.3304 378.418 53.4723 379.832 52.8868C381.245 52.3013 382.76 52 384.29 52C385.82 52 387.335 52.3013 388.748 52.8868C390.162 53.4723 391.446 54.3304 392.528 55.4122C393.61 56.494 394.468 57.7783 395.053 59.1917C395.639 60.6052 395.94 62.1201 395.94 63.65C395.94 70.86 390.72 75.3 384.29 75.3V75.3ZM358.66 239.23C352.22 239.23 347.5 234.23 347.5 227.58C347.5 221.15 352.22 215.93 358.66 215.93C365.91 215.93 370.31 221.15 370.31 227.58C370.31 234.18 365.91 239.23 358.66 239.23ZM358.66 184.86C352.22 184.86 347.5 179.65 347.5 173.21C347.5 166.77 352.22 161.56 358.66 161.56C365.91 161.56 370.31 166.77 370.31 173.21C370.31 179.65 365.91 184.86 358.66 184.86V184.86ZM358.66 157.68C357.172 157.676 355.699 157.376 354.328 156.796C352.958 156.217 351.717 155.369 350.677 154.304C349.638 153.239 348.822 151.977 348.276 150.592C347.731 149.207 347.467 147.728 347.5 146.24C347.5 139.59 352.22 134.37 358.66 134.37C365.91 134.37 370.31 139.59 370.31 146.24C370.31 152.46 365.91 157.68 358.66 157.68V157.68ZM333.24 212.48C330.072 212.427 327.051 211.131 324.831 208.871C322.61 206.611 321.367 203.569 321.37 200.4C321.37 197.31 322.597 194.347 324.782 192.162C326.967 189.977 329.93 188.75 333.02 188.75C336.11 188.75 339.073 189.977 341.258 192.162C343.443 194.347 344.67 197.31 344.67 200.4C344.67 206.83 339.46 212.48 333.24 212.48V212.48ZM333.24 184.86C330.927 184.904 328.653 184.258 326.709 183.004C324.764 181.751 323.237 179.947 322.321 177.823C321.406 175.698 321.143 173.349 321.568 171.075C321.992 168.801 323.084 166.705 324.704 165.053C326.324 163.402 328.399 162.27 330.665 161.803C332.931 161.335 335.284 161.552 337.426 162.427C339.568 163.302 341.4 164.795 342.69 166.715C343.98 168.636 344.67 170.897 344.67 173.21C344.658 176.258 343.456 179.181 341.322 181.357C339.187 183.533 336.287 184.79 333.24 184.86V184.86ZM333.24 130.49C330.927 130.534 328.653 129.888 326.709 128.634C324.764 127.381 323.237 125.577 322.321 123.453C321.406 121.328 321.143 118.979 321.568 116.705C321.992 114.431 323.084 112.335 324.704 110.683C326.324 109.032 328.399 107.9 330.665 107.433C332.931 106.965 335.284 107.182 337.426 108.057C339.568 108.932 341.4 110.425 342.69 112.345C343.98 114.266 344.67 116.527 344.67 118.84C344.658 121.888 343.456 124.811 341.322 126.987C339.187 129.163 336.287 130.42 333.24 130.49V130.49ZM333.24 103.3C326.59 103.3 321.37 98.86 321.37 91.65C321.37 88.5602 322.597 85.597 324.782 83.4122C326.967 81.2274 329.93 80 333.02 80C336.11 80 339.073 81.2274 341.258 83.4122C343.443 85.597 344.67 88.5602 344.67 91.65C344.67 98.86 339.46 103.3 333.24 103.3V103.3ZM333.24 75.3C326.59 75.3 321.37 70.86 321.37 63.65C321.37 60.5602 322.597 57.597 324.782 55.4122C326.967 53.2274 329.93 52 333.02 52C336.11 52 339.073 53.2274 341.258 55.4122C343.443 57.597 344.67 60.5602 344.67 63.65C344.67 70.86 339.46 75.3 333.24 75.3V75.3ZM307.39 239.23C304.3 239.23 301.337 238.003 299.152 235.818C296.967 233.633 295.74 230.67 295.74 227.58C295.74 224.49 296.967 221.527 299.152 219.342C301.337 217.157 304.3 215.93 307.39 215.93C313.83 215.93 319.39 221.15 319.39 227.58C319.332 230.712 318.038 233.695 315.79 235.877C313.542 238.06 310.523 239.265 307.39 239.23ZM307.39 184.86C304.3 184.86 301.337 183.633 299.152 181.448C296.967 179.263 295.74 176.3 295.74 173.21C295.74 170.12 296.967 167.157 299.152 164.972C301.337 162.787 304.3 161.56 307.39 161.56C313.83 161.56 319.39 166.77 319.39 173.21C319.39 179.65 313.83 184.86 307.39 184.86V184.86ZM307.39 130.49C304.3 130.49 301.337 129.263 299.152 127.078C296.967 124.893 295.74 121.93 295.74 118.84C295.74 115.75 296.967 112.787 299.152 110.602C301.337 108.417 304.3 107.19 307.39 107.19C313.83 107.19 319.39 112.4 319.39 118.84C319.39 125.28 313.83 130.49 307.39 130.49V130.49ZM307.39 103.3C300.96 103.3 295.74 98.86 295.74 91.65C295.743 88.561 296.971 85.5994 299.155 83.4151C301.339 81.2309 304.301 80.0026 307.39 80C313.83 80 319.39 85.22 319.39 91.65C319.42 98.86 313.83 103.3 307.39 103.3V103.3ZM307.39 75.3C300.96 75.3 295.74 70.86 295.74 63.65C295.743 60.561 296.971 57.5994 299.155 55.4151C301.339 53.2309 304.301 52.0026 307.39 52C313.83 52 319.39 57.22 319.39 63.65C319.42 70.86 313.83 75.3 307.39 75.3V75.3ZM281.76 157.68C279.444 157.682 277.18 156.993 275.257 155.703C273.334 154.413 271.838 152.58 270.961 150.437C270.084 148.293 269.865 145.938 270.332 143.669C270.798 141.401 271.93 139.323 273.583 137.701C275.235 136.078 277.333 134.984 279.609 134.559C281.886 134.133 284.237 134.395 286.364 135.311C288.491 136.227 290.297 137.756 291.552 139.702C292.807 141.649 293.454 143.925 293.41 146.24C293.365 149.297 292.117 152.212 289.936 154.354C287.755 156.496 284.817 157.691 281.76 157.68V157.68ZM281.76 130.49C279.456 130.49 277.203 129.807 275.288 128.527C273.372 127.247 271.879 125.427 270.997 123.298C270.115 121.17 269.884 118.827 270.334 116.567C270.783 114.307 271.893 112.231 273.522 110.602C275.151 108.973 277.227 107.863 279.487 107.414C281.747 106.964 284.09 107.195 286.218 108.077C288.347 108.959 290.167 110.452 291.447 112.368C292.727 114.283 293.41 116.536 293.41 118.84C293.41 121.93 292.183 124.893 289.998 127.078C287.813 129.263 284.85 130.49 281.76 130.49ZM256.12 130.49C253.816 130.488 251.565 129.803 249.65 128.522C247.736 127.24 246.244 125.42 245.364 123.291C244.484 121.162 244.254 118.82 244.705 116.561C245.156 114.302 246.266 112.227 247.896 110.599C249.525 108.97 251.601 107.862 253.861 107.413C256.12 106.964 258.462 107.196 260.591 108.078C262.719 108.96 264.538 110.453 265.817 112.369C267.097 114.284 267.78 116.536 267.78 118.84C267.777 121.931 266.548 124.894 264.361 127.078C262.175 129.263 259.211 130.49 256.12 130.49V130.49ZM254 146.24C253.957 148.534 253.237 150.765 251.931 152.651C250.624 154.538 248.79 155.997 246.658 156.845C244.526 157.693 242.191 157.893 239.945 157.419C237.7 156.945 235.645 155.818 234.038 154.18C232.43 152.543 231.342 150.467 230.91 148.213C230.478 145.959 230.722 143.628 231.609 141.512C232.497 139.396 233.99 137.59 235.901 136.319C237.812 135.048 240.055 134.37 242.35 134.37C243.9 134.364 245.436 134.669 246.866 135.266C248.297 135.864 249.593 136.741 250.679 137.848C251.765 138.954 252.618 140.266 253.188 141.708C253.759 143.149 254.035 144.69 254 146.24V146.24ZM216.71 212.48C210.28 212.48 205.62 206.83 205.62 200.4C205.62 193.97 210.28 188.74 216.71 188.74C219.802 188.74 222.768 189.968 224.955 192.155C227.142 194.342 228.37 197.308 228.37 200.4C228.37 206.83 223.15 212.48 216.71 212.48V212.48ZM216.71 184.86C210.28 184.86 205.62 179.65 205.62 173.21C205.62 166.77 210.28 161.56 216.71 161.56C219.8 161.56 222.763 162.787 224.948 164.972C227.133 167.157 228.36 170.12 228.36 173.21C228.36 176.3 227.133 179.263 224.948 181.448C222.763 183.633 219.8 184.86 216.71 184.86ZM216.71 103.3C210.28 103.3 205.62 98.86 205.62 91.65C205.62 85.22 210.28 80 216.71 80C219.801 80 222.765 81.2271 224.951 83.4116C227.138 85.5961 228.367 88.5593 228.37 91.65C228.37 98.86 223.15 103.3 216.71 103.3V103.3ZM216.71 75.3C210.28 75.3 205.62 70.86 205.62 63.65C205.62 57.22 210.28 52 216.71 52C219.801 52 222.765 53.2271 224.951 55.4116C227.138 57.5961 228.367 60.5593 228.37 63.65C228.37 70.86 223.15 75.3 216.71 75.3V75.3ZM191.81 157.68C184.65 157.68 179.43 152.46 179.43 146.24C179.43 139.59 184.65 134.37 191.81 134.37C197.52 134.37 202.73 139.59 202.73 146.24C202.73 152.46 197.52 157.68 191.81 157.68ZM191.81 103.3C184.65 103.3 179.43 98.86 179.43 91.65C179.43 85.22 184.65 80 191.81 80C197.52 80 202.73 85.22 202.73 91.65C202.73 98.86 197.52 103.3 191.81 103.3V103.3ZM191.81 75.3C184.65 75.3 179.43 70.86 179.43 63.65C179.43 57.22 184.65 52 191.81 52C197.52 52 202.73 57.22 202.73 63.65C202.73 70.86 197.52 75.3 191.81 75.3V75.3ZM165.45 320.79C162.36 320.79 159.397 319.563 157.212 317.378C155.027 315.193 153.8 312.23 153.8 309.14C153.8 306.05 155.027 303.087 157.212 300.902C159.397 298.717 162.36 297.49 165.45 297.49C171.88 297.49 177.99 302.71 177.99 309.14C177.99 315.57 171.88 320.79 165.45 320.79ZM165.45 157.68C162.418 157.591 159.54 156.324 157.427 154.148C155.313 151.972 154.131 149.058 154.131 146.025C154.131 142.992 155.313 140.078 157.427 137.902C159.54 135.726 162.418 134.459 165.45 134.37C171.88 134.37 177.99 139.59 177.99 146.24C178 152.46 171.88 157.68 165.45 157.68ZM165.45 103.3C159.13 103.3 153.8 98.86 153.8 91.65C153.821 88.5667 155.055 85.6156 157.235 83.4354C159.416 81.2551 162.367 80.021 165.45 80C171.88 80 178 85.22 178 91.65C178 98.86 171.88 103.3 165.45 103.3V103.3ZM165.45 75.3C159.13 75.3 153.8 70.86 153.8 63.65C153.821 60.5667 155.055 57.6156 157.235 55.4354C159.416 53.2551 162.367 52.021 165.45 52C171.88 52 178 57.22 178 63.65C178 70.86 171.88 75.3 165.45 75.3V75.3ZM139.82 157.68C137.504 157.682 135.24 156.993 133.317 155.703C131.394 154.413 129.898 152.58 129.021 150.437C128.144 148.293 127.925 145.938 128.391 143.669C128.858 141.401 129.99 139.323 131.643 137.701C133.295 136.078 135.393 134.984 137.669 134.559C139.946 134.133 142.297 134.395 144.424 135.311C146.551 136.227 148.357 137.756 149.612 139.702C150.867 141.649 151.514 143.925 151.47 146.24C151.425 149.297 150.177 152.212 147.996 154.354C145.815 156.496 142.877 157.691 139.82 157.68V157.68ZM139.82 103.3C133.38 103.3 128.16 98.86 128.16 91.65C128.249 88.618 129.516 85.74 131.692 83.6267C133.868 81.5135 136.782 80.3314 139.815 80.3314C142.848 80.3314 145.762 81.5135 147.938 83.6267C150.114 85.74 151.381 88.618 151.47 91.65C151.47 98.86 146.25 103.3 139.82 103.3V103.3ZM114.18 320.79C111.876 320.79 109.623 320.107 107.708 318.827C105.792 317.547 104.299 315.727 103.417 313.598C102.535 311.47 102.304 309.127 102.754 306.867C103.203 304.607 104.313 302.531 105.942 300.902C107.571 299.273 109.647 298.163 111.907 297.714C114.167 297.264 116.51 297.495 118.638 298.377C120.767 299.259 122.587 300.752 123.867 302.668C125.147 304.583 125.83 306.836 125.83 309.14C125.83 312.23 124.603 315.193 122.418 317.378C120.233 319.563 117.27 320.79 114.18 320.79V320.79ZM114.18 266.42C111.876 266.42 109.623 265.737 107.708 264.457C105.792 263.177 104.299 261.357 103.417 259.228C102.535 257.1 102.304 254.757 102.754 252.497C103.203 250.237 104.313 248.161 105.942 246.532C107.571 244.903 109.647 243.793 111.907 243.344C114.167 242.894 116.51 243.125 118.638 244.007C120.767 244.889 122.587 246.382 123.867 248.298C125.147 250.213 125.83 252.466 125.83 254.77C125.827 257.859 124.599 260.821 122.415 263.005C120.231 265.189 117.269 266.417 114.18 266.42V266.42ZM114.18 239.23C111.876 239.23 109.623 238.547 107.708 237.267C105.792 235.986 104.299 234.167 103.417 232.038C102.535 229.91 102.304 227.567 102.754 225.307C103.203 223.047 104.313 220.971 105.942 219.342C107.571 217.713 109.647 216.603 111.907 216.154C114.167 215.704 116.51 215.935 118.638 216.817C120.767 217.699 122.587 219.192 123.867 221.108C125.147 223.023 125.83 225.276 125.83 227.58C125.843 229.114 125.551 230.635 124.97 232.054C124.39 233.473 123.532 234.763 122.448 235.848C121.363 236.932 120.073 237.79 118.654 238.37C117.235 238.951 115.714 239.243 114.18 239.23ZM114.18 184.86C111.876 184.86 109.623 184.177 107.708 182.897C105.792 181.617 104.299 179.797 103.417 177.668C102.535 175.539 102.304 173.197 102.754 170.937C103.203 168.677 104.313 166.601 105.942 164.972C107.571 163.343 109.647 162.233 111.907 161.784C114.167 161.334 116.51 161.565 118.638 162.447C120.767 163.329 122.587 164.822 123.867 166.738C125.147 168.653 125.83 170.906 125.83 173.21C125.83 176.3 124.603 179.263 122.418 181.448C120.233 183.633 117.27 184.86 114.18 184.86V184.86ZM114.18 157.68C111.864 157.682 109.6 156.993 107.677 155.703C105.754 154.413 104.258 152.58 103.381 150.437C102.504 148.293 102.285 145.938 102.752 143.669C103.218 141.401 104.35 139.323 106.003 137.701C107.655 136.078 109.753 134.984 112.029 134.559C114.306 134.133 116.657 134.395 118.784 135.311C120.911 136.227 122.717 137.756 123.972 139.702C125.227 141.649 125.874 143.925 125.83 146.24C125.785 149.297 124.537 152.212 122.356 154.354C120.175 156.496 117.237 157.691 114.18 157.68V157.68ZM88.55 320.79C86.2459 320.79 83.9934 320.107 82.0776 318.827C80.1618 317.547 78.6686 315.727 77.7868 313.598C76.905 311.47 76.6743 309.127 77.1238 306.867C77.5734 304.607 78.6829 302.531 80.3122 300.902C81.9415 299.273 84.0173 298.163 86.2772 297.714C88.5371 297.264 90.8795 297.495 93.0083 298.377C95.137 299.259 96.9565 300.752 98.2366 302.668C99.5167 304.583 100.2 306.836 100.2 309.14C100.201 310.67 99.9009 312.186 99.3159 313.6C98.7309 315.014 97.8728 316.299 96.7907 317.381C95.7087 318.463 94.4239 319.321 93.0098 319.906C91.5958 320.491 90.0803 320.791 88.55 320.79V320.79ZM88.55 293.61C86.2413 293.612 83.984 292.929 82.0642 291.646C80.1443 290.364 78.6483 288.541 77.7657 286.407C76.8832 284.274 76.6538 281.927 77.1066 279.663C77.5594 277.399 78.6741 275.321 80.3094 273.691C81.9447 272.061 84.027 270.954 86.2924 270.509C88.5577 270.064 90.9043 270.301 93.0345 271.191C95.1648 272.081 96.983 273.583 98.2586 275.507C99.5342 277.432 100.21 279.691 100.2 282C100.189 285.083 98.9573 288.036 96.7737 290.212C94.59 292.388 91.6329 293.61 88.55 293.61ZM88.55 266.42C86.2459 266.42 83.9934 265.737 82.0776 264.457C80.1618 263.177 78.6686 261.357 77.7868 259.228C76.905 257.1 76.6743 254.757 77.1238 252.497C77.5734 250.237 78.6829 248.161 80.3122 246.532C81.9415 244.903 84.0173 243.793 86.2772 243.344C88.5371 242.894 90.8795 243.125 93.0083 244.007C95.137 244.889 96.9565 246.382 98.2366 248.298C99.5167 250.213 100.2 252.466 100.2 254.77C100.2 256.3 99.8987 257.815 99.3132 259.228C98.7277 260.642 97.8696 261.926 96.7878 263.008C95.706 264.09 94.4217 264.948 93.0083 265.533C91.5948 266.119 90.0799 266.42 88.55 266.42ZM88.55 212.48C82.11 212.48 76.9 206.83 76.9 200.4C76.9 197.31 78.1274 194.347 80.3122 192.162C82.497 189.977 85.4602 188.75 88.55 188.75C91.6398 188.75 94.603 189.977 96.7878 192.162C98.9726 194.347 100.2 197.31 100.2 200.4C100.2 206.83 95 212.48 88.55 212.48V212.48ZM88.55 184.86C86.2459 184.86 83.9934 184.177 82.0776 182.897C80.1618 181.617 78.6686 179.797 77.7868 177.668C76.905 175.539 76.6743 173.197 77.1238 170.937C77.5734 168.677 78.6829 166.601 80.3122 164.972C81.9415 163.343 84.0173 162.233 86.2772 161.784C88.5371 161.334 90.8795 161.565 93.0083 162.447C95.137 163.329 96.9565 164.822 98.2366 166.738C99.5167 168.653 100.2 170.906 100.2 173.21C100.201 174.74 99.9009 176.256 99.3159 177.67C98.7309 179.084 97.8728 180.369 96.7907 181.451C95.7087 182.533 94.4239 183.391 93.0098 183.976C91.5958 184.561 90.0803 184.861 88.55 184.86V184.86ZM88.55 130.49C86.2459 130.49 83.9934 129.807 82.0776 128.527C80.1618 127.247 78.6686 125.427 77.7868 123.298C76.905 121.17 76.6743 118.827 77.1238 116.567C77.5734 114.307 78.6829 112.231 80.3122 110.602C81.9415 108.973 84.0173 107.863 86.2772 107.414C88.5371 106.964 90.8795 107.195 93.0083 108.077C95.137 108.959 96.9565 110.452 98.2366 112.368C99.5167 114.283 100.2 116.536 100.2 118.84C100.2 120.37 99.8987 121.885 99.3132 123.298C98.7277 124.712 97.8696 125.996 96.7878 127.078C95.706 128.16 94.4217 129.018 93.0083 129.603C91.5948 130.189 90.0799 130.49 88.55 130.49ZM88.55 103.3C82.11 103.3 76.9 98.86 76.9 91.65C76.9 88.5602 78.1274 85.597 80.3122 83.4122C82.497 81.2274 85.4602 80 88.55 80C91.6398 80 94.603 81.2274 96.7878 83.4122C98.9726 85.597 100.2 88.5602 100.2 91.65C100.2 98.86 95 103.3 88.55 103.3V103.3ZM88.55 75.3C82.11 75.3 76.9 70.86 76.9 63.65C76.9 60.5602 78.1274 57.597 80.3122 55.4122C82.497 53.2274 85.4602 52 88.55 52C91.6398 52 94.603 53.2274 96.7878 55.4122C98.9726 57.597 100.2 60.5602 100.2 63.65C100.2 70.86 95 75.3 88.55 75.3V75.3ZM62.92 293.61C60.6113 293.612 58.354 292.929 56.4342 291.646C54.5143 290.364 53.0183 288.541 52.1357 286.407C51.2532 284.274 51.0238 281.927 51.4766 279.663C51.9294 277.399 53.0441 275.321 54.6794 273.691C56.3147 272.061 58.397 270.954 60.6624 270.509C62.9277 270.064 65.2743 270.301 67.4045 271.191C69.5348 272.081 71.353 273.583 72.6286 275.507C73.9042 277.432 74.5799 279.691 74.57 282C74.5568 285.082 73.3239 288.033 71.1408 290.209C68.9577 292.385 66.002 293.607 62.92 293.61V293.61ZM62.92 239.23C60.6158 239.23 58.3634 238.547 56.4476 237.267C54.5318 235.986 53.0386 234.167 52.1568 232.038C51.275 229.91 51.0443 227.567 51.4939 225.307C51.9434 223.047 53.0529 220.971 54.6822 219.342C56.3115 217.713 58.3873 216.603 60.6472 216.154C62.9071 215.704 65.2495 215.935 67.3783 216.817C69.507 217.699 71.3265 219.192 72.6066 221.108C73.8867 223.023 74.57 225.276 74.57 227.58C74.5833 229.114 74.2911 230.635 73.7104 232.054C73.1296 233.473 72.272 234.763 71.1875 235.848C70.1031 236.932 68.8135 237.79 67.394 238.37C65.9745 238.951 64.4536 239.243 62.92 239.23V239.23ZM62.92 184.86C60.6158 184.86 58.3634 184.177 56.4476 182.897C54.5318 181.617 53.0386 179.797 52.1568 177.668C51.275 175.539 51.0443 173.197 51.4939 170.937C51.9434 168.677 53.0529 166.601 54.6822 164.972C56.3115 163.343 58.3873 162.233 60.6472 161.784C62.9071 161.334 65.2495 161.565 67.3783 162.447C69.507 163.329 71.3265 164.822 72.6066 166.738C73.8867 168.653 74.57 170.906 74.57 173.21C74.57 176.3 73.3426 179.263 71.1578 181.448C68.973 183.633 66.0098 184.86 62.92 184.86V184.86ZM62.92 130.49C60.6158 130.49 58.3634 129.807 56.4476 128.527C54.5318 127.247 53.0386 125.427 52.1568 123.298C51.275 121.17 51.0443 118.827 51.4939 116.567C51.9434 114.307 53.0529 112.231 54.6822 110.602C56.3115 108.973 58.3873 107.863 60.6472 107.414C62.9071 106.964 65.2495 107.195 67.3783 108.077C69.507 108.959 71.3265 110.452 72.6066 112.368C73.8867 114.283 74.57 116.536 74.57 118.84C74.5674 121.929 73.3391 124.891 71.1549 127.075C68.9706 129.259 66.009 130.487 62.92 130.49V130.49ZM62.92 103.3C56.48 103.3 51.26 98.86 51.26 91.65C51.3488 88.618 52.6157 85.74 54.7917 83.6267C56.9678 81.5135 59.8817 80.3314 62.915 80.3314C65.9483 80.3314 68.8622 81.5135 71.0383 83.6267C73.2143 85.74 74.4812 88.618 74.57 91.65C74.57 98.86 69.35 103.3 62.92 103.3V103.3ZM37.28 266.42C34.9763 266.418 32.7248 265.733 30.8103 264.452C28.8958 263.17 27.4042 261.35 26.5239 259.221C25.6437 257.092 25.4144 254.75 25.8651 252.491C26.3157 250.232 27.4261 248.157 29.0557 246.529C30.6854 244.9 32.7613 243.792 35.0209 243.343C37.2805 242.894 39.6224 243.126 41.7506 244.008C43.8787 244.89 45.6976 246.383 46.9773 248.299C48.257 250.214 48.94 252.466 48.94 254.77C48.9373 257.861 47.7077 260.824 45.5213 263.008C43.3349 265.193 40.3707 266.42 37.28 266.42V266.42ZM37.28 157.68C34.9646 157.68 32.7017 156.99 30.7798 155.699C28.8578 154.407 27.3638 152.573 26.4881 150.43C25.6124 148.286 25.3947 145.931 25.8628 143.663C26.3308 141.396 27.4633 139.319 29.1161 137.697C30.7689 136.075 32.867 134.983 35.1431 134.558C37.4192 134.133 39.7703 134.396 41.8966 135.312C44.023 136.228 45.8284 137.757 47.0828 139.703C48.3371 141.649 48.9837 143.925 48.94 146.24C48.8952 149.298 47.6455 152.215 45.4622 154.357C43.2789 156.5 40.3386 157.693 37.28 157.68V157.68ZM37.28 130.49C34.9763 130.488 32.7248 129.803 30.8103 128.522C28.8958 127.24 27.4042 125.42 26.5239 123.291C25.6437 121.162 25.4144 118.82 25.8651 116.561C26.3157 114.302 27.4261 112.227 29.0557 110.599C30.6854 108.97 32.7613 107.862 35.0209 107.413C37.2805 106.964 39.6224 107.196 41.7506 108.078C43.8787 108.96 45.6976 110.453 46.9773 112.369C48.257 114.284 48.94 116.536 48.94 118.84C48.9373 121.931 47.7077 124.894 45.5213 127.078C43.3349 129.263 40.3707 130.49 37.28 130.49ZM11.65 130.49C8.56023 130.49 5.597 129.263 3.41221 127.078C1.22741 124.893 0 121.93 0 118.84C0 115.75 1.22741 112.787 3.41221 110.602C5.597 108.417 8.56023 107.19 11.65 107.19C18.86 107.19 23.3 112.4 23.3 118.84C23.3 125.28 18.86 130.49 11.65 130.49V130.49ZM242.35 188.74C245.441 188.743 248.404 189.972 250.588 192.159C252.773 194.345 254 197.309 254 200.4C254 206.83 248.78 212.48 242.35 212.48C235.92 212.48 230.7 206.83 230.7 200.4C230.699 198.869 230.999 197.353 231.584 195.939C232.169 194.524 233.027 193.239 234.109 192.156C235.191 191.073 236.475 190.214 237.889 189.628C239.304 189.042 240.819 188.74 242.35 188.74V188.74ZM486.82 297.49C489.124 297.49 491.377 298.173 493.292 299.453C495.208 300.733 496.701 302.553 497.583 304.682C498.465 306.81 498.696 309.153 498.246 311.413C497.797 313.673 496.687 315.749 495.058 317.378C493.429 319.007 491.353 320.117 489.093 320.566C486.833 321.016 484.49 320.785 482.362 319.903C480.233 319.021 478.414 317.528 477.133 315.612C475.853 313.697 475.17 311.444 475.17 309.14C475.17 306.05 476.397 303.087 478.582 300.902C480.767 298.717 483.73 297.49 486.82 297.49V297.49Z" fill="#F4F6FB"/>
<path fill-rule="evenodd" clip-rule="evenodd" d="M355 130C368.845 130 382.378 134.105 393.89 141.797C405.401 149.489 414.373 160.421 419.672 173.212C424.97 186.003 426.356 200.078 423.655 213.656C420.954 227.235 414.287 239.708 404.497 249.497C394.708 259.287 382.235 265.954 368.656 268.655C355.078 271.356 341.003 269.97 328.212 264.672C315.421 259.373 304.489 250.401 296.797 238.89C289.105 227.378 285 213.845 285 200C285 181.435 292.375 163.63 305.503 150.503C318.63 137.375 336.435 130 355 130V130Z" fill="#023F97"/>
<path d="M355 130C368.845 130 382.378 134.105 393.89 141.797C405.401 149.489 414.373 160.421 419.672 173.212C424.97 186.003 426.356 200.078 423.655 213.656C420.954 227.235 414.287 239.708 404.497 249.497C394.708 259.287 382.235 265.954 368.656 268.655C355.078 271.356 341.003 269.97 328.212 264.672C315.421 259.373 304.489 250.401 296.797 238.89C289.105 227.378 285 213.845 285 200C285 181.435 292.375 163.63 305.503 150.503C318.63 137.375 336.435 130 355 130V130Z" fill="url(#paint0_linear_1_815)"/>
<path fill-rule="evenodd" clip-rule="evenodd" d="M395.31 191.29L392.61 199.6C391.812 202.172 390.203 204.417 388.024 205.999C385.845 207.582 383.213 208.417 380.52 208.38H368.15L364.24 221.72L352.58 221.79L361.24 194.44L366.85 196.29L363 183.17L389.28 183C390.279 183 391.265 183.237 392.155 183.691C393.046 184.145 393.816 184.802 394.404 185.611C394.992 186.419 395.381 187.355 395.538 188.342C395.695 189.329 395.617 190.339 395.31 191.29V191.29ZM382.76 189.35H374.33L370.21 202.4H375.76C377.121 202.32 378.425 201.826 379.497 200.984C380.569 200.142 381.359 198.993 381.76 197.69L384 191C384.063 190.807 384.078 190.603 384.045 190.403C384.012 190.203 383.931 190.014 383.809 189.852C383.688 189.69 383.529 189.56 383.346 189.473C383.163 189.385 382.962 189.343 382.76 189.35V189.35ZM353.76 194.44L345.1 221.84L320.63 221.1C319.629 221.103 318.641 220.868 317.748 220.416C316.855 219.964 316.081 219.306 315.491 218.497C314.901 217.689 314.511 216.752 314.352 215.763C314.194 214.775 314.272 213.763 314.58 212.81L324.25 183.43L335.69 183.35L325.93 214C325.67 214 326.28 214.8 327.14 214.8H335.73L346.37 183.33L359.45 183.25L346.94 196.36L353.76 194.44Z" fill="white"/>
<path fill-rule="evenodd" clip-rule="evenodd" d="M264 0C286.91 0 304 17.91 304 40C304 62.91 286.91 80 264 80C241.91 80 224 62.91 224 40C224 29.3913 228.214 19.2172 235.716 11.7157C243.217 4.21427 253.391 0 264 0V0Z" fill="#FBFBFC"/>
<path d="M264 0C286.91 0 304 17.91 304 40C304 62.91 286.91 80 264 80C241.91 80 224 62.91 224 40C224 29.3913 228.214 19.2172 235.716 11.7157C243.217 4.21427 253.391 0 264 0V0Z" fill="url(#paint1_linear_1_815)"/>
<path fill-rule="evenodd" clip-rule="evenodd" d="M420 282C442.91 282 460 299.91 460 322C460 344.91 442.91 362 420 362C397.91 362 380 344.91 380 322C380 311.391 384.214 301.217 391.716 293.716C399.217 286.214 409.391 282 420 282Z" fill="#FBFBFC"/>
<path d="M420 282C442.91 282 460 299.91 460 322C460 344.91 442.91 362 420 362C397.91 362 380 344.91 380 322C380 311.391 384.214 301.217 391.716 293.716C399.217 286.214 409.391 282 420 282Z" fill="url(#paint2_linear_1_815)"/>
<path fill-rule="evenodd" clip-rule="evenodd" d="M151 214C156.933 214 162.734 215.759 167.667 219.056C172.601 222.352 176.446 227.038 178.716 232.52C180.987 238.001 181.581 244.033 180.424 249.853C179.266 255.672 176.409 261.018 172.213 265.213C168.018 269.409 162.672 272.266 156.853 273.424C151.033 274.581 145.001 273.987 139.52 271.716C134.038 269.446 129.352 265.601 126.056 260.667C122.759 255.734 121 249.933 121 244C121 236.044 124.161 228.413 129.787 222.787C135.413 217.161 143.044 214 151 214V214Z" fill="#FBFBFC"/>
<path d="M151 214C156.933 214 162.734 215.759 167.667 219.056C172.601 222.352 176.446 227.038 178.716 232.52C180.987 238.001 181.581 244.033 180.424 249.853C179.266 255.672 176.409 261.018 172.213 265.213C168.018 269.409 162.672 272.266 156.853 273.424C151.033 274.581 145.001 273.987 139.52 271.716C134.038 269.446 129.352 265.601 126.056 260.667C122.759 255.734 121 249.933 121 244C121 236.044 124.161 228.413 129.787 222.787C135.413 217.161 143.044 214 151 214V214Z" fill="url(#paint3_linear_1_815)"/>
<path fill-rule="evenodd" clip-rule="evenodd" d="M246 303C255.889 303 265.556 305.932 273.778 311.427C282.001 316.921 288.41 324.73 292.194 333.866C295.978 343.002 296.969 353.055 295.039 362.754C293.11 372.454 288.348 381.363 281.355 388.355C274.363 395.348 265.454 400.11 255.754 402.039C246.055 403.969 236.002 402.978 226.866 399.194C217.73 395.41 209.921 389.001 204.427 380.778C198.932 372.556 196 362.889 196 353C196 339.739 201.268 327.021 210.645 317.645C220.021 308.268 232.739 303 246 303V303Z" fill="#F7931A"/>
<path d="M246 303C255.889 303 265.556 305.932 273.778 311.427C282.001 316.921 288.41 324.73 292.194 333.866C295.978 343.002 296.969 353.055 295.039 362.754C293.11 372.454 288.348 381.363 281.355 388.355C274.363 395.348 265.454 400.11 255.754 402.039C246.055 403.969 236.002 402.978 226.866 399.194C217.73 395.41 209.921 389.001 204.427 380.778C198.932 372.556 196 362.889 196 353C196 339.739 201.268 327.021 210.645 317.645C220.021 308.268 232.739 303 246 303V303Z" fill="url(#paint4_linear_1_815)"/>
<path fill-rule="evenodd" clip-rule="evenodd" d="M255.414 337.586L267.828 350H230V346H258.172L252.586 340.414L255.414 337.586Z" fill="white"/>
<path fill-rule="evenodd" clip-rule="evenodd" d="M237.586 368.415L225.172 356H263V360H234.828L240.414 365.586L237.586 368.415Z" fill="white"/>
<path fill-rule="evenodd" clip-rule="evenodd" d="M523 69C532.889 69 542.556 71.9325 550.778 77.4265C559.001 82.9206 565.41 90.7295 569.194 99.8658C572.978 109.002 573.969 119.055 572.039 128.755C570.11 138.454 565.348 147.363 558.355 154.355C551.363 161.348 542.454 166.11 532.755 168.039C523.055 169.969 513.002 168.978 503.866 165.194C494.73 161.41 486.921 155.001 481.427 146.779C475.932 138.556 473 128.889 473 119C473 105.739 478.268 93.0215 487.645 83.6447C497.021 74.2678 509.739 69 523 69Z" fill="#FBFBFC"/>
<path d="M523 69C532.889 69 542.556 71.9325 550.778 77.4265C559.001 82.9206 565.41 90.7295 569.194 99.8658C572.978 109.002 573.969 119.055 572.039 128.755C570.11 138.454 565.348 147.363 558.355 154.355C551.363 161.348 542.454 166.11 532.755 168.039C523.055 169.969 513.002 168.978 503.866 165.194C494.73 161.41 486.921 155.001 481.427 146.779C475.932 138.556 473 128.889 473 119C473 105.739 478.268 93.0215 487.645 83.6447C497.021 74.2678 509.739 69 523 69Z" fill="url(#paint5_linear_1_815)"/>
<path fill-rule="evenodd" clip-rule="evenodd" d="M505.883 102H539.78C540.82 102 541.663 102.843 541.663 103.883V123.185C541.663 127.631 539.57 131.817 536.014 134.484L523.961 143.524C523.292 144.026 522.371 144.026 521.702 143.524L509.649 134.484C506.093 131.817 504 127.631 504 123.185V103.883C504 102.843 504.843 102 505.883 102ZM520.949 127.378L533.152 117.209L531.344 115.039L520.949 123.701L514.321 118.177L512.512 120.347L520.949 127.378Z" fill="#FBFBFC"/>
<defs>
<linearGradient id="paint0_linear_1_815" x1="368.19" y1="255.41" x2="331.79" y2="119.61" gradientUnits="userSpaceOnUse">
<stop stop-color="#023F97"/>
<stop offset="0.99" stop-color="#0062DF"/>
</linearGradient>
<linearGradient id="paint1_linear_1_815" x1="272.19" y1="69.89" x2="251.39" y2="-7.71" gradientUnits="userSpaceOnUse">
<stop stop-color="#B2B9CC"/>
<stop offset="1" stop-color="#E9EDF4"/>
</linearGradient>
<linearGradient id="paint2_linear_1_815" x1="428.81" y1="351.88" x2="408.01" y2="274.28" gradientUnits="userSpaceOnUse">
<stop stop-color="#B2B9CC"/>
<stop offset="1" stop-color="#E9EDF4"/>
</linearGradient>
<linearGradient id="paint3_linear_1_815" x1="157.05" y1="266.3" x2="141.45" y2="208.7" gradientUnits="userSpaceOnUse">
<stop stop-color="#B2B9CC"/>
<stop offset="1" stop-color="#E9EDF4"/>
</linearGradient>
<linearGradient id="paint4_linear_1_815" x1="255.91" y1="387.88" x2="229.91" y2="290.88" gradientUnits="userSpaceOnUse">
<stop stop-color="#FCA82F"/>
<stop offset="1" stop-color="#FDE0A9"/>
</linearGradient>
<linearGradient id="paint5_linear_1_815" x1="532.53" y1="153.88" x2="507.53" y2="56.88" gradientUnits="userSpaceOnUse">
<stop stop-color="#3F475C"/>
<stop offset="0.98" stop-color="#AEB6C4"/>
</linearGradient>
</defs>
</svg>
