<svg id="레이어_1" data-name="레이어 1" xmlns="http://www.w3.org/2000/svg" xmlns:xlink="http://www.w3.org/1999/xlink" viewBox="0 0 524.43 388.37"><defs><style>.cls-1,.cls-2{fill:none;}.cls-1{stroke-linecap:round;stroke-width:4px;stroke-dasharray:2 8;stroke:url(#무제_그라디언트_74);}.cls-2{stroke:#a4aabb;stroke-width:3px;}.cls-3{fill:#e21414;}.cls-10,.cls-3,.cls-5,.cls-6,.cls-7,.cls-8,.cls-9{fill-rule:evenodd;}.cls-4{fill:url(#무제_그라디언트_67);}.cls-5{fill:#fff;}.cls-6{fill:url(#무제_그라디언트_13);}.cls-7{fill:url(#무제_그라디언트_13-2);}.cls-8{fill:url(#무제_그라디언트_13-3);}.cls-9{fill:url(#무제_그라디언트_13-4);}.cls-10{fill:url(#무제_그라디언트_13-5);}</style><linearGradient id="무제_그라디언트_74" x1="57.7" y1="180.95" x2="229.06" y2="180.95" gradientUnits="userSpaceOnUse"><stop offset="0" stop-color="#e5312a"/><stop offset="1" stop-color="#570092"/></linearGradient><linearGradient id="무제_그라디언트_67" x1="-1321.91" y1="2122.68" x2="-1322.17" y2="2123.65" gradientTransform="matrix(140, 0, 0, -140, 185151.77, 297418.83)" gradientUnits="userSpaceOnUse"><stop offset="0.24" stop-color="#db251d"/><stop offset="1" stop-color="#ed3c34"/></linearGradient><linearGradient id="무제_그라디언트_13" x1="-1314.63" y1="2131.01" x2="-1315.45" y2="2131.58" gradientTransform="matrix(80, 0, 0, -80, 105609.93, 170533.1)" gradientUnits="userSpaceOnUse"><stop offset="0" stop-color="#a4aabb"/><stop offset="1" stop-color="#e7eaf2"/></linearGradient><linearGradient id="무제_그라디언트_13-2" x1="-1317.96" y1="2127.22" x2="-1318.78" y2="2127.79" gradientTransform="matrix(100, 0, 0, -100, 132091.33, 212885.92)" xlink:href="#무제_그라디언트_13"/><linearGradient id="무제_그라디언트_13-3" x1="-1314.63" y1="2131.01" x2="-1315.45" y2="2131.58" gradientTransform="matrix(80.01, 0, 0, -80, 105606.89, 170719.22)" xlink:href="#무제_그라디언트_13"/><linearGradient id="무제_그라디언트_13-4" x1="-1314.63" y1="2131.01" x2="-1315.45" y2="2131.58" gradientTransform="matrix(80, 0, 0, -80, 105387.99, 170843.15)" xlink:href="#무제_그라디언트_13"/><linearGradient id="무제_그라디언트_13-5" x1="-1309.07" y1="2137.33" x2="-1309.89" y2="2137.91" gradientTransform="matrix(60, 0, 0, -60, 79052.66, 128552.54)" xlink:href="#무제_그라디언트_13"/></defs><path class="cls-1" d="M227.06,152.88,59.7,209"/><path class="cls-2" d="M266.11,147.44l-64,198,200-125Z"/><path class="cls-2" d="M421.11,39.44l-19,183,92,80"/><path class="cls-3" d="M70.11,120.83a70,70,0,1,1-70,70A70,70,0,0,1,70.11,120.83Z"/><path class="cls-4" d="M70.11,120.83a70,70,0,1,1-70,70A70,70,0,0,1,70.11,120.83Z"/><path class="cls-5" d="M98.33,221.61H84.27a1.31,1.31,0,0,1-1.21-1.46V190.61l8.68-8.8,3.17,3.05a5.63,5.63,0,0,0,4,1.74,4.74,4.74,0,0,0,.8-.06v33.61A1.49,1.49,0,0,1,98.33,221.61Zm.91-40.05c0,.05-.2.07-.31.07s-.47.77-.64-.28l-6.6-6.58L70.11,197a.5.5,0,0,1-.71,0l-8.68-9.06L46.91,202.3c-.1.11-.22.32-.35.32s-.26-.21.51-.32L40.23,196a.41.41,0,0,1,0-.73l20.14-21.1a.48.48,0,0,1,.7,0l8.69,9.06L84.9,167.43l-6.44-6.68c.5.14.45-.64-.2-1a.81.81,0,0,1,.84-.48H99c1,0,.39,0,.54.27.17.08.23.21.23.46v20.68A.91.91,0,0,1,99.24,181.56ZM46.42,207.83a6.91,6.91,0,0,0,4.37-2l5.89-6.74v21a1.5,1.5,0,0,1-1.44,1.46H41.81c-1.38,0-1.83-.68-1.83-1.46V202.87l2.8,3A5.32,5.32,0,0,0,46.42,207.83Zm23.26-5.7a13.36,13.36,0,0,0,3.81-.87l4.83-5.69v24.58a1.59,1.59,0,0,1-1.54,1.46H62.72a1.38,1.38,0,0,1-1.3-1.46V195.73L66,201.26A12.5,12.5,0,0,0,69.68,202.13Z"/><path class="cls-6" d="M419.92.44a40,40,0,0,1,40,40c0,22.91-17.91,40-40,40s-40-17.09-40-40A40,40,0,0,1,419.92.44Z"/><path class="cls-7" d="M270.77,96.73a50,50,0,1,1-50,50A50,50,0,0,1,270.77,96.73Z"/><path class="cls-5" d="M288.93,137.36c-14.32-4.05-19.38-12.68-19.38-12.68s-5.06,8.63-18.81,12.68c0,0-3.4,23.82,18.81,31.06C291.76,161.18,288.93,137.36,288.93,137.36Z"/><path class="cls-8" d="M403.59,182.35a40,40,0,1,1,0,80,40,40,0,1,1,0-80Z"/><path class="cls-5" d="M402.92,208.75c-7.21,0-14.94,3.43-14.94,12.25a11.9,11.9,0,0,0,1.12,5.23,4.73,4.73,0,0,1,.49,2.94l-.54,2.74c-.56,2.53-.48,2.92,2.41,2.29l6.61-1.18a4.33,4.33,0,0,1,1.57,0,22.62,22.62,0,0,0,3.28.24c7.4,0,14.94-3.43,14.94-12.25S410.32,208.75,402.92,208.75Zm-6.18,14.66c-1.11,0-2-.86-2-1.45,0-1.53.9-2.38,2-2.38s2,.85,2,2.38C398.75,222.55,397.85,223.41,396.74,223.41Zm6.18,0c-1.11,0-2-.86-2-1.45,0-1.53.9-2.38,2-2.38s2,.85,2,2.38C404.93,222.55,404,223.41,402.92,223.41Zm6.18,0c-1.11,0-2-.86-2-1.45,0-1.53.9-2.38,2-2.38a2.39,2.39,0,0,1,2.41,2.38C411.51,222.55,410.21,223.41,409.1,223.41Z"/><path class="cls-9" d="M198,308.37a40,40,0,1,1-40,40A40,40,0,0,1,198,308.37Z"/><path class="cls-10" d="M494.55,272.17a30,30,0,1,1-30,30A29.88,29.88,0,0,1,494.55,272.17Z"/></svg>