<svg id="레이어_1" data-name="레이어 1" xmlns="http://www.w3.org/2000/svg" xmlns:xlink="http://www.w3.org/1999/xlink" viewBox="0 0 503 399"><defs><style>.cls-1{fill:#efedf9;}.cls-1,.cls-2,.cls-3,.cls-5{fill-rule:evenodd;}.cls-2{fill:#342579;}.cls-3{fill:#fff;}.cls-4{fill:url(#무제_그라디언트_14);}.cls-5{fill:#d1cbeb;}.cls-6{fill:url(#무제_그라디언트_14-2);}.cls-7{fill:url(#무제_그라디언트_2);}.cls-8{fill:url(#무제_그라디언트_2-2);}</style><linearGradient id="무제_그라디언트_14" x1="-610.04" y1="1711.38" x2="-610.3" y2="1712.35" gradientTransform="matrix(100, 0, 0, -100, 61467.53, 171289.06)" gradientUnits="userSpaceOnUse"><stop offset="0.01" stop-color="#6656b0"/><stop offset="1" stop-color="#ac9add"/></linearGradient><linearGradient id="무제_그라디언트_14-2" x1="-610.34" y1="1711.38" x2="-610.6" y2="1712.35" gradientTransform="matrix(100, 0, 0, -100, 61119.92, 171524.78)" xlink:href="#무제_그라디언트_14"/><linearGradient id="무제_그라디언트_2" x1="-609.11" y1="1714.15" x2="-609.37" y2="1715.11" gradientTransform="matrix(80, 0, 0, -80, 48821.19, 137201.83)" gradientUnits="userSpaceOnUse"><stop offset="0" stop-color="#b2b9cc"/><stop offset="1" stop-color="#e9edf4"/></linearGradient><linearGradient id="무제_그라디언트_2-2" x1="-606.23" y1="1718.76" x2="-606.49" y2="1719.72" gradientTransform="matrix(60, 0, 0, -60, 36734.23, 103475.89)" xlink:href="#무제_그라디언트_2"/></defs><path class="cls-1" d="M10,150H35a10,10,0,0,1,10,10V369a10,10,0,0,1-10,10H10A10,10,0,0,1,0,369V160A10,10,0,0,1,10,150Z"/><path class="cls-1" d="M68,219H93a10,10,0,0,1,10,10V369a10,10,0,0,1-10,10H68a10,10,0,0,1-10-10V229A10,10,0,0,1,68,219Z"/><path class="cls-1" d="M127,253h25a10,10,0,0,1,10,10V370a10,10,0,0,1-10,10H127a10,10,0,0,1-10-10V263A10,10,0,0,1,127,253Z"/><path class="cls-1" d="M185,281h25a10,10,0,0,1,10,10v78a10,10,0,0,1-10,10H185a10,10,0,0,1-10-10V291A10,10,0,0,1,185,281Z"/><path class="cls-1" d="M243,80h25a10,10,0,0,1,10,10V369a10,10,0,0,1-10,10H243a10,10,0,0,1-10-10V90A10,10,0,0,1,243,80Z"/><path class="cls-1" d="M301,182h25a10,10,0,0,1,10,10V369a10,10,0,0,1-10,10H301a10,10,0,0,1-10-10V192A10,10,0,0,1,301,182Z"/><path class="cls-1" d="M360,126h25a10,10,0,0,1,10,10V369a10,10,0,0,1-10,10H360a10,10,0,0,1-10-10V136A10,10,0,0,1,360,126Z"/><path class="cls-1" d="M418,20h25a10,10,0,0,1,10,10V369a10,10,0,0,1-10,10H418a10,10,0,0,1-10-10V30A10,10,0,0,1,418,20Z"/><path class="cls-2" d="M233,133a70,70,0,1,1-70,70A70,70,0,0,1,233,133Z"/><path class="cls-3" d="M248.79,235.58V218.79h16.79v16.79Zm1.91-29a18.62,18.62,0,0,0-18.17-22.69,18.62,18.62,0,0,0,0,37.24,18.8,18.8,0,0,0,4.07-.45v14.1c-1.34.16-2.69.78-4.07.78-18,0-32.53-15.09-32.53-33.05A32.52,32.52,0,0,1,232.53,170c18,0,33,14.56,33,32.53,0,1.38-.62,2.73-.78,4.07Z"/><path class="cls-4" d="M453,65.09a50,50,0,1,1-50,50A50,50,0,0,1,453,65.09Z"/><path class="cls-3" d="M465,97.09H441.22a6.23,6.23,0,0,0-6.22,6.22v23.74a6.23,6.23,0,0,0,6.22,6.22H465a6.23,6.23,0,0,0,6.22-6.22V103.31A6.23,6.23,0,0,0,465,97.09Zm-16.86,24.3a2.35,2.35,0,0,1-2.36,2.27,2.27,2.27,0,0,1-2.26-2.27V109a2.26,2.26,0,0,1,2.26-2.26A2.35,2.35,0,0,1,448.1,109Zm7.25,0a2.39,2.39,0,0,1-1.47,2.27c-2,0-3.05-1-3.05-2.27v-5.65c0-1.25,1-2.26,3.05-2.26a2.38,2.38,0,0,1,1.47,2.26Zm7.35,0a2.26,2.26,0,1,1-4.52,0V109a2.26,2.26,0,1,1,4.52,0Z"/><path class="cls-5" d="M76,299a50,50,0,1,1-50,50A50,50,0,0,1,76,299Z"/><path class="cls-6" d="M76,299a50,50,0,1,1-50,50A50,50,0,0,1,76,299Z"/><path class="cls-3" d="M92.91,350.57l-3.08,2.92c-.48.46-1.11.69-.92.69-1.45,0-2.08-.23-2.56-.69-1-.91-1-1.5,0-3.3l3.08-2.92a7.32,7.32,0,0,0,0-10.72,8.48,8.48,0,0,0-11.29,0l-2.5,2.92c-1.54.91-3.1.91-4.06,0s-1-1.71,0-3.31l3.08-2.92c3.29-2.31,5.68-3.59,9.12-3.59a13.21,13.21,0,0,1,9.13,3.59A11.84,11.84,0,0,1,92.91,350.57Zm-9.23-8c1,.32,1,1.8,0,2.71L72.6,355.83a2.57,2.57,0,0,1-3.48,0,2.26,2.26,0,0,1,0-3.31L80.2,342.6A3.26,3.26,0,0,1,83.68,342.6Zm-20.31,8a7.32,7.32,0,0,0,0,10.72,8.31,8.31,0,0,0,11.29,0l3.08-2.92a2.54,2.54,0,0,1,3.48,0,2.25,2.25,0,0,1,0,3.3l-3.08,2.92a13.14,13.14,0,0,1-9,3.59,13.33,13.33,0,0,1-9.27-3.59c-5-4.77-5-12.17,0-17.32L63,344.34a2.56,2.56,0,0,1,3.48,0,2.26,2.26,0,0,1,0,3.31Z"/><path class="cls-7" d="M84.4,0c22.91,0,40,17.91,40,40,0,22.91-17.09,40-40,40-22.09,0-40-17.09-40-40A40,40,0,0,1,84.4,0Z"/><path class="cls-5" d="M355,298a30,30,0,1,1-30,30A30,30,0,0,1,355,298Z"/><path class="cls-8" d="M355,298a30,30,0,1,1-30,30A30,30,0,0,1,355,298Z"/></svg>