<svg id="레이어_1" data-name="레이어 1" xmlns="http://www.w3.org/2000/svg" xmlns:xlink="http://www.w3.org/1999/xlink" viewBox="0 0 515.94 358"><defs><style>.cls-1,.cls-2{fill:none;stroke:#541cd5;}.cls-2{stroke-width:2px;}.cls-12,.cls-3{fill:#541cd5;}.cls-11,.cls-12,.cls-3,.cls-5,.cls-6{fill-rule:evenodd;}.cls-12,.cls-3,.cls-5{isolation:isolate;}.cls-3,.cls-5{opacity:0.85;}.cls-4{opacity:0.64;}.cls-5{fill:url(#무제_그라디언트_267);}.cls-6{fill:#fbfbfc;}.cls-7{fill:url(#무제_그라디언트_2);}.cls-8{fill:url(#무제_그라디언트_2-2);}.cls-9{fill:url(#무제_그라디언트_2-3);}.cls-10{fill:url(#무제_그라디언트_2-4);}.cls-11,.cls-13{fill:#fff;}.cls-12{opacity:0.4;}</style><linearGradient id="무제_그라디언트_267" x1="182.39" y1="67.92" x2="342.55" y2="228.08" gradientUnits="userSpaceOnUse"><stop offset="0" stop-color="#fff"/><stop offset="1" stop-color="#541cd5"/></linearGradient><linearGradient id="무제_그라디언트_2" x1="-1318.11" y1="1160.15" x2="-1318.37" y2="1161.12" gradientTransform="matrix(100, 0, 0, -100, 132279.67, 116324.25)" gradientUnits="userSpaceOnUse"><stop offset="0" stop-color="#b2b9cc"/><stop offset="1" stop-color="#e9edf4"/></linearGradient><linearGradient id="무제_그라디언트_2-2" x1="-1318.11" y1="1160.15" x2="-1318.37" y2="1161.12" gradientTransform="matrix(100, 0, 0, -100, 131869.34, 116101.25)" xlink:href="#무제_그라디언트_2"/><linearGradient id="무제_그라디언트_2-3" x1="-1314.78" y1="1161.67" x2="-1315.03" y2="1162.64" gradientTransform="matrix(80, 0, 0, -80, 105321.78, 93281.49)" xlink:href="#무제_그라디언트_2"/><linearGradient id="무제_그라디언트_2-4" x1="-1309.23" y1="1164.2" x2="-1309.49" y2="1165.17" gradientTransform="matrix(60, 0, 0, -60, 78983.91, 69948.73)" xlink:href="#무제_그라디언트_2"/></defs><path class="cls-1" d="M260.25,140.75c82.43,0,149.25,12.2,149.25,27.25,0,15.49-66.82,27.25-149.25,27.25S111,183.49,111,168C111,153,177.82,140.75,260.25,140.75Z"/><path class="cls-1" d="M260,116.57c117.78,0,213.25,22.92,213.25,51.18S377.78,218.92,260,218.92,46.75,196.12,46.75,167.75,142.22,116.57,260,116.57Z"/><path class="cls-2" d="M260,103.14c140.69,0,254.75,28.85,254.75,64.61S400.69,232.48,260,232.48,5.25,203.5,5.25,167.75,119.3,103.14,260,103.14Z"/><path class="cls-3" d="M262.25,34.75A113.25,113.25,0,1,1,149,148,113.25,113.25,0,0,1,262.25,34.75Z"/><g class="cls-4"><path class="cls-5" d="M262.47,34.75A113.25,113.25,0,1,1,149.22,148,113.25,113.25,0,0,1,262.47,34.75Z"/></g><path class="cls-6" d="M459,223a50,50,0,1,1-50,50A50,50,0,0,1,459,223Z"/><path class="cls-7" d="M459,223a50,50,0,1,1-50,50A50,50,0,0,1,459,223Z"/><path class="cls-6" d="M50,0A50,50,0,1,1,0,50,50,50,0,0,1,50,0Z"/><path class="cls-8" d="M50,0A50,50,0,1,1,0,50,50,50,0,0,1,50,0Z"/><path class="cls-6" d="M133,278c22.91,0,40,17.91,40,40,0,22.91-17.09,40-40,40-22.09,0-40-17.09-40-40A40,40,0,0,1,133,278Z"/><path class="cls-9" d="M133,278c22.91,0,40,17.91,40,40,0,22.91-17.09,40-40,40-22.09,0-40-17.09-40-40A40,40,0,0,1,133,278Z"/><path class="cls-6" d="M423,43a30,30,0,1,1-30,30A30,30,0,0,1,423,43Z"/><path class="cls-10" d="M423,43a30,30,0,1,1-30,30A30,30,0,0,1,423,43Z"/><path class="cls-11" d="M26.48,37.81l23-10.61,23,10.61-23,10.6Zm46,22-23,10.6-23-10.6,23-10.61Z"/><path class="cls-11" d="M478.81,264.17s-3.31-8.17-11-8.17H451.11c-7.69,0-10.28,8.17-10.28,8.17L438,283c.58,6.34,6.82,7.6,6.82,7.6h1.07c6.51,0,11-10.78,11-10.78h5.26s4.36,10.78,11.07,10.78h1.72a8.34,8.34,0,0,0,6-7.6Zm-27.07,7.55a3.46,3.46,0,1,1,3.47-3.45A3.45,3.45,0,0,1,451.74,271.72Zm15.43,0a3.46,3.46,0,1,1,0-6.91c2.63,0,3.46,1.55,3.46,3.46S469.8,271.72,467.17,271.72Z"/><path class="cls-12" d="M155.94,187.82c18.13,44.66,58,73.43,106.05,73.43,47.05,0,91.65-30.1,107-74.42C321.59,198.82,189.48,195.25,155.94,187.82Z"/><path class="cls-13" d="M299.44,178.74v-49h0v-1a11.06,11.06,0,0,0-4.36-8.93h0c-.32-.23-.83-.56-1.78-1.18l-3.53-2.28-5.54-3.55c-3.17-1.72-6.3-2.82-17.05-2.12l-33.25,2.18c-5.94.4-12.87,6.63-12.87,13.75v37.49A16.17,16.17,0,0,0,224.91,175s5.59,6.42,7.78,8.53a11.15,11.15,0,0,0,8.74,3.27l36.87-2.42a16.84,16.84,0,0,1,3,.12h0q.54.06,1.05.15h0c.45.08.88.18,1.24.28l.45.15c.47.18,1,.43,1.59.69l.24.12.24.11.8.35.37.16.27.11.94.34.28.09a11.94,11.94,0,0,0,1.18.29,6.64,6.64,0,0,0,1.88.12h0a7.7,7.7,0,0,0,2.52-.62l.26-.12a8,8,0,0,0,3.1-2.61l.24-.34A9.23,9.23,0,0,0,299.44,178.74ZM235.66,134a7.32,7.32,0,0,1,6.75-7.2l44.15-2.9a6.26,6.26,0,0,1,6.75,6.32v48.95a2.42,2.42,0,0,1-.72,1.87,1.22,1.22,0,0,1-1.06.28,14,14,0,0,1-3-1.15,21.08,21.08,0,0,0-2.88-1.15,24,24,0,0,0-7.24-.77h-.18l-35.81,2.35a6.26,6.26,0,0,1-6.75-6.32Z"/><path class="cls-13" d="M285.9,130.35l-5.25.34a1.14,1.14,0,0,0-1,1.12v5.27a1,1,0,0,0,1,1l5.25-.34A1.14,1.14,0,0,0,287,136.6v-5.27A1,1,0,0,0,285.9,130.35Z"/><path class="cls-13" d="M277.58,162.32a.75.75,0,0,0-.56-.22h0l-13,.85,6.22-6.17c4.95-4.77,7-8.42,7-12.59a8.66,8.66,0,0,0-3.42-7.24c-2.24-1.68-5.38-2.43-9.1-2.19-6.35.42-11.42,4.13-12.9,9.45a.79.79,0,0,0,.08.62.76.76,0,0,0,.48.36l6.2,1.53a.85.85,0,0,0,.64-.09.88.88,0,0,0,.41-.52,6.33,6.33,0,0,1,1.9-3.11,5.29,5.29,0,0,1,3.16-1.26,4.38,4.38,0,0,1,3.05.78,3.12,3.12,0,0,1,1.13,2.54c0,2.27-1.62,4.91-5,8.09L252,165a.87.87,0,0,0-.26.61v4.19a.73.73,0,0,0,.25.56.78.78,0,0,0,.55.22h.05l24.39-1.6a.9.9,0,0,0,.84-.88v-5.17A.73.73,0,0,0,277.58,162.32Z"/></svg>