<svg id="레이어_1" data-name="레이어 1" xmlns="http://www.w3.org/2000/svg" xmlns:xlink="http://www.w3.org/1999/xlink" viewBox="0 0 511 258"><defs><style>.cls-1,.cls-2{fill:none;stroke-linecap:round;stroke-width:13px;}.cls-1{stroke:url(#무제_그라디언트_263);}.cls-2{stroke:url(#무제_그라디언트_263-2);}.cls-3{fill:url(#무제_그라디언트_2);}.cls-4{fill:#fff;}.cls-4,.cls-6{fill-rule:evenodd;}.cls-5{fill:url(#무제_그라디언트_2-2);}.cls-6{fill:#003d9b;}</style><linearGradient id="무제_그라디언트_263" x1="87.03" y1="152.98" x2="398.45" y2="152.98" gradientUnits="userSpaceOnUse"><stop offset="0.11" stop-color="#fff"/><stop offset="0.3" stop-color="#00e7b9"/><stop offset="1" stop-color="#007ae7"/></linearGradient><linearGradient id="무제_그라디언트_263-2" x1="87.03" y1="104.33" x2="398.45" y2="104.33" xlink:href="#무제_그라디언트_263"/><linearGradient id="무제_그라디언트_2" x1="-1318.34" y1="1509.9" x2="-1318.6" y2="1510.87" gradientTransform="matrix(100, 0, 0, -100, 132303.37, 151234.38)" gradientUnits="userSpaceOnUse"><stop offset="0" stop-color="#b2b9cc"/><stop offset="1" stop-color="#e9edf4"/></linearGradient><linearGradient id="무제_그라디언트_2-2" x1="-1318.34" y1="1509.88" x2="-1318.6" y2="1510.84" gradientTransform="matrix(100, 0, 0, -100, 132303.37, 151074.88)" xlink:href="#무제_그라디언트_2"/></defs><path class="cls-1" d="M93.53,94.81s91.59-3.86,150.41,57,121.51,61.31,148,58.48"/><path class="cls-2" d="M93.53,162.35s91.59,3.85,150.41-57S365.45,44.9,392,46.83"/><path class="cls-3" d="M461,157a50,50,0,1,1-50,50A50,50,0,0,1,461,157Z"/><path class="cls-4" d="M478,222h-2V195.21a5.29,5.29,0,0,0-5-5.21H451a5.29,5.29,0,0,0-5,5.21V222h-2c-.4,0-2,1-2,2,0,1.21,1.6,2,2,2h34a2,2,0,0,0,2-2A2.14,2.14,0,0,0,478,222Zm-10-14a1.23,1.23,0,0,1-1,1H455a1.23,1.23,0,0,1-1-1v-2a1.23,1.23,0,0,1,1-1h12a1.23,1.23,0,0,1,1,1Zm-14-11a1.23,1.23,0,0,1,1-1h12a1.23,1.23,0,0,1,1,1v2a1.23,1.23,0,0,1-1,1H455a1.23,1.23,0,0,1-1-1Zm0,20a1.87,1.87,0,0,1,2-2h10a1.87,1.87,0,0,1,2,2v5H454Z"/><path class="cls-5" d="M461,1.06a50,50,0,1,1-50,50A50,50,0,0,1,461,1.06Z"/><path class="cls-4" d="M473.23,66.1h-24c-2.91,0-5-2.43-3.72-4.92,1.84-3.67,6-8.06,15.6-8.06s13.75,4.39,15.6,8.06C478,63.67,475.91,66.1,473.23,66.1Zm-12.1-16.78a8,8,0,1,1,7.63-8A7.85,7.85,0,0,1,461.13,49.32Z"/><path class="cls-6" d="M70,59A70,70,0,1,1,0,129,70,70,0,0,1,70,59Z"/><path class="cls-4" d="M81.26,147.36V135.11c11.25,0,11.25-11.55,11.25-11.55s-1.06-10-10.89-10a10.52,10.52,0,0,0-11,8.93v33.6H58.76v-34c-.33-21,22.68-20.54,22.68-20.54s23.72-.46,23.37,22.29S81.26,147.36,81.26,147.36ZM47.18,119.8l-.35,36.31H35V120.34c5.26-21.76,25.54-19.18,25.54-19.18A23.35,23.35,0,0,0,47.18,119.8Z"/></svg>