<svg id="레이어_1" data-name="레이어 1" xmlns="http://www.w3.org/2000/svg" xmlns:xlink="http://www.w3.org/1999/xlink" viewBox="0 0 472 445"><defs><style>.cls-1{fill:#a6c4fb;}.cls-1,.cls-11,.cls-12,.cls-2,.cls-3,.cls-4,.cls-5,.cls-9{fill-rule:evenodd;}.cls-2{fill:#8bbbff;}.cls-3{fill:#d7e5fd;}.cls-4{fill:#e0eafc;}.cls-5{fill:#a4aabb;}.cls-6{fill:url(#무제_그라디언트_2);}.cls-7{fill:url(#무제_그라디언트_2-2);}.cls-8{fill:url(#무제_그라디언트_4);}.cls-9{fill:#fff;}.cls-10{fill:url(#무제_그라디언트_4-2);}.cls-11{fill:#f7f7f8;}.cls-12{fill:#1366ff;}</style><linearGradient id="무제_그라디언트_2" x1="-606.23" y1="1155.03" x2="-606.49" y2="1156" gradientTransform="matrix(60, 0, 0, -60, 36801.85, 69353.22)" gradientUnits="userSpaceOnUse"><stop offset="0" stop-color="#b2b9cc"/><stop offset="1" stop-color="#e9edf4"/></linearGradient><linearGradient id="무제_그라디언트_2-2" x1="-608.8" y1="1152.73" x2="-609.06" y2="1153.7" gradientTransform="matrix(80, 0, 0, -80, 48751.58, 92654.79)" xlink:href="#무제_그라디언트_2"/><linearGradient id="무제_그라디언트_4" x1="-610.35" y1="1151.35" x2="-610.6" y2="1152.32" gradientTransform="matrix(100, 0, 0, -100, 61467.15, 115490.89)" gradientUnits="userSpaceOnUse"><stop offset="0" stop-color="#1366ff"/><stop offset="0.99" stop-color="#3f81fb"/></linearGradient><linearGradient id="무제_그라디언트_4-2" x1="-610.34" y1="1151.35" x2="-610.6" y2="1152.32" gradientTransform="matrix(100, 0, 0, -100, 61133.91, 115293.04)" xlink:href="#무제_그라디언트_4"/></defs><path class="cls-1" d="M402.92,312.74,252.46,399.52,102,312.74V139.18L252.46,52.4l150.46,86.78Z"/><polygon class="cls-2" points="100.9 313.7 251.3 252.99 404.02 312.59 251.35 400.48 100.9 313.7"/><path class="cls-3" d="M252.46,327.33l-78-43v-14l78-48,78,48v14Z"/><path class="cls-4" d="M252.46,305.49l-78-43v-14l78-48,78,48v14Z"/><path class="cls-5" d="M422,0a30,30,0,1,1-30,30A30,30,0,0,1,422,0Z"/><path class="cls-6" d="M422,0a30,30,0,1,1-30,30A30,30,0,0,1,422,0Z"/><path class="cls-5" d="M40,365c22.91,0,40,17.91,40,40,0,22.91-17.09,40-40,40-22.09,0-40-17.09-40-40A40,40,0,0,1,40,365Z"/><path class="cls-7" d="M40,365c22.91,0,40,17.91,40,40,0,22.91-17.09,40-40,40-22.09,0-40-17.09-40-40A40,40,0,0,1,40,365Z"/><path class="cls-5" d="M422,268a50,50,0,1,1-50,50A50,50,0,0,1,422,268Z"/><path class="cls-8" d="M422,268a50,50,0,1,1-50,50A50,50,0,0,1,422,268Z"/><path class="cls-9" d="M435.32,313.37a3.91,3.91,0,0,0,3.91-3.9V305.9a3.91,3.91,0,0,0-3.91-3.9h-3.57a3.91,3.91,0,0,0-3.9,3.9v.59l-12.48-.31v-.28a3.91,3.91,0,0,0-3.9-3.9H407.9a3.91,3.91,0,0,0-3.9,3.9v3.57a3.91,3.91,0,0,0,3.9,3.9h.44v12.48h-.44a3.91,3.91,0,0,0-3.9,3.9v3.57a3.91,3.91,0,0,0,3.9,3.91h3.57a3.91,3.91,0,0,0,3.9-3.91v-.13h12.48v.13a3.91,3.91,0,0,0,3.9,3.91h3.57a3.91,3.91,0,0,0,3.91-3.91v-3.57a3.91,3.91,0,0,0-3.91-3.9h-.13V313.37Zm-3.43,12.48h-.14a3.91,3.91,0,0,0-3.9,3.9v.14H415.37v-.14a3.91,3.91,0,0,0-3.9-3.9h-.13V313.37h.13a3.9,3.9,0,0,0,3.9-3.89l12.5.31c.46,2,1.84,3.58,3.88,3.58h.14Z"/><path class="cls-5" d="M90,69a50,50,0,1,1-50,50A50,50,0,0,1,90,69Z"/><path class="cls-10" d="M90,69a50,50,0,1,1-50,50A50,50,0,0,1,90,69Z"/><path class="cls-9" d="M108.31,113.41,102,117.14l-11.06-6.5c-.56-.33-1.26-.33-1,0l-11.59,6.5-6.62-3.73c-.55.49-.89-.91-.89-1.55a1.81,1.81,0,0,1,.89-1.56l18.21-9.56c-.25-1,.45-1,1,0l17.4,9.56a1.81,1.81,0,0,1,.89,1.56C109.2,112.5,108.86,113.9,108.31,113.41ZM71.69,124.54,89.9,114.32c-.25-.34.45-.34,1,0l17.4,10.22c.55.33.89.92.89,2.44,0-.24-.34.35-.89.67l-17.4,10.23c-.28.6-.6.25-.91.25s-.63.35-.1-.25L71.69,127.65c-.55-.32-.89-.91-.89-.67C70.8,125.46,71.14,124.87,71.69,124.54Z"/><path class="cls-4" d="M252.46,283.65l-78-43v-14l78-48,78,48v14Z"/><path class="cls-4" d="M252.46,261.81l-78-43v-14l78-48,78,48v14Z"/><path class="cls-11" d="M252.46,240l-78-43V183l78-48,78,48v14Z"/><path class="cls-12" d="M227.44,195.14l13.3,8.5,11.72-7.59,25.09,14.47V241.4l-25.09,14.47L227.37,241.4V225.88l25.09,14.47,11.8-6.81V218.18L252.46,225l-38.38-22.14v46.22l38.38,22.13,38.39-22.13V202.85l-38.39-22.13Z"/></svg>