
<svg id="레이어_1" data-name="레이어 1" xmlns="http://www.w3.org/2000/svg" viewBox="0 0 36.11 36.11"><defs><style>.cls-1{fill:#edeff3;fill-rule:evenodd;}</style></defs><path class="cls-1" d="M18.06,0A18.06,18.06,0,1,1,0,18.06,18.05,18.05,0,0,1,18.06,0Z"/><path d="M11,9.46a1.84,1.84,0,0,0,0,3.68A1.84,1.84,0,0,0,11,9.46Z"/><rect x="9.15" y="14.37" width="3.68" height="12.28"/><path d="M21.43,14.37a3.68,3.68,0,0,0-2.53,1.36V14.37H15.29V26.65H19V19.28c.07-1.11.35-2.68,2.15-2.44,1.53.2,1.53,2.44,1.53,2.44v7.37H27V19.12C26.63,15.51,24.39,14.16,21.43,14.37Z"/></svg>