<svg xmlns="http://www.w3.org/2000/svg" id="레이어_1" data-name="레이어 1" viewBox="0 0 41.7 36.36"><script xmlns=""/><script xmlns=""/><script xmlns=""/><defs><style>.cls-1{fill:#fff;}</style></defs><path class="cls-1" d="M1.67,9.5H40A1.59,1.59,0,0,0,41.7,8,1.59,1.59,0,0,0,40,6.5H1.67A1.59,1.59,0,0,0,0,8,1.59,1.59,0,0,0,1.67,9.5Z"/><path class="cls-1" d="M40,17.25H1.67a1.51,1.51,0,1,0,0,3H40a1.51,1.51,0,1,0,0-3Z"/><path class="cls-1" d="M40,28H1.67a1.51,1.51,0,1,0,0,3H40a1.51,1.51,0,1,0,0-3Z"/><script xmlns=""/></svg>