<svg id="레이어_1" data-name="레이어 1" xmlns="http://www.w3.org/2000/svg" xmlns:xlink="http://www.w3.org/1999/xlink" viewBox="0 0 1055.14 501.69"><defs><style>.cls-1,.cls-11,.cls-12,.cls-13,.cls-14,.cls-15,.cls-2,.cls-6,.cls-7,.cls-8{fill:none;isolation:isolate;}.cls-1,.cls-2{stroke:#415776;}.cls-1,.cls-13,.cls-6{opacity:0.1;}.cls-14,.cls-2,.cls-7{opacity:0.2;}.cls-3{fill:#d1cbeb;}.cls-10,.cls-16,.cls-3,.cls-9{fill-rule:evenodd;}.cls-4{fill:url(#무제_그라디언트_2);}.cls-5{fill:url(#무제_그라디언트_2-2);}.cls-11,.cls-12,.cls-6,.cls-7,.cls-8{stroke:#0e1320;}.cls-15,.cls-8{opacity:0.3;}.cls-9{fill:#0e1320;}.cls-10,.cls-18{fill:#fff;}.cls-11{opacity:0.1;}.cls-12{opacity:0.2;}.cls-13,.cls-14,.cls-15{stroke:#0f52b3;}.cls-16{fill:#0f52b3;}.cls-17{fill:url(#무제_그라디언트_3);}</style><linearGradient id="무제_그라디언트_2" x1="645.79" y1="2845.65" x2="645.53" y2="2846.61" gradientTransform="matrix(40, 0, 0, -40, -24848.36, 114008.91)" gradientUnits="userSpaceOnUse"><stop offset="0" stop-color="#b2b9cc"/><stop offset="1" stop-color="#e9edf4"/></linearGradient><linearGradient id="무제_그라디언트_2-2" x1="645.79" y1="2845.65" x2="645.53" y2="2846.61" gradientTransform="matrix(40, 0, 0, -40, -25752.37, 114152.91)" xlink:href="#무제_그라디언트_2"/><linearGradient id="무제_그라디언트_3" x1="657.63" y1="2806.42" x2="657.37" y2="2807.38" gradientTransform="matrix(140, 0, 0, -140, -91589.84, 393213.3)" gradientUnits="userSpaceOnUse"><stop offset="0" stop-color="#023f97"/><stop offset="0.99" stop-color="#0062df"/></linearGradient></defs><path class="cls-1" d="M979.58,93.05a75,75,0,1,1-75,75A75,75,0,0,1,979.58,93.05Z"/><path class="cls-2" d="M979.51,118a49.69,49.69,0,0,1,50,50c0,28.48-21.89,50-50,50-27.61,0-50-21.52-50-50A50,50,0,0,1,979.51,118Z"/><path class="cls-3" d="M979.35,148a20,20,0,1,1-20,20A20,20,0,0,1,979.35,148Z"/><path class="cls-4" d="M979.35,148a20,20,0,1,1-20,20A20,20,0,0,1,979.35,148Z"/><path class="cls-1" d="M75.58,237.05a75,75,0,1,1-75,75A75,75,0,0,1,75.58,237.05Z"/><path class="cls-2" d="M75.51,262a49.69,49.69,0,0,1,50,50c0,28.48-21.89,50-50,50-27.61,0-50-21.52-50-50A50,50,0,0,1,75.51,262Z"/><path class="cls-3" d="M75.35,292a20,20,0,1,1-20,20A20,20,0,0,1,75.35,292Z"/><path class="cls-5" d="M75.35,292a20,20,0,1,1-20,20A20,20,0,0,1,75.35,292Z"/><path class="cls-6" d="M722.32,181.11a160,160,0,1,1-160,160A160,160,0,0,1,722.32,181.11Z"/><path class="cls-7" d="M722.42,231.2a110,110,0,1,1-110,110A109.69,109.69,0,0,1,722.42,231.2Z"/><path class="cls-8" d="M722.52,281.29a60,60,0,1,1-60,60A60,60,0,0,1,722.52,281.29Z"/><path class="cls-9" d="M722.62,311.37a30,30,0,1,1,0,60,30,30,0,0,1,0-60Z"/><path class="cls-10" d="M733,352.16H712.86c-2.24,0-4-2-2.92-4.06,1.54-3,5-6.63,13-6.63s11.47,3.61,13,6.63C737,350.16,735.26,352.16,733,352.16Zm-16.45-17.31a6.37,6.37,0,1,1,12.72,0,6.37,6.37,0,1,1-12.72,0Z"/><path class="cls-11" d="M223.79.62a120,120,0,1,1-120,120A120,120,0,0,1,223.79.62Z"/><path class="cls-12" d="M223.89,50.7a70,70,0,1,1-70,70A70,70,0,0,1,223.89,50.7Z"/><path class="cls-9" d="M224,90.79a30,30,0,1,1-30,30A30,30,0,0,1,224,90.79Z"/><path class="cls-10" d="M235.35,133H215.46a5.93,5.93,0,0,0,6-5.69V109.22h13.92c1.66,0,3,2,3,3V130A3,3,0,0,1,235.35,133Zm-20.93-1.54a5.07,5.07,0,1,1,0-10.13c3.61,0,5.06,2.27,5.06,5.07S218,131.45,214.42,131.45Zm0-12.27a6.38,6.38,0,0,0-5.07,2.5V111.05a5.07,5.07,0,0,1,5.07-5.06c3.61,0,5.06,2.27,5.06,5.06v10.63A6.37,6.37,0,0,0,214.42,119.18Z"/><path class="cls-13" d="M463.06,56c116,0,210,94,210,209.92s-94,209.92-210,209.92-210-94-210-209.92S347.09,56,463.06,56Z"/><path class="cls-14" d="M462.92,105.8a160,160,0,1,1-160,160A160,160,0,0,1,462.92,105.8Z"/><path class="cls-15" d="M462.78,155.64a110,110,0,1,1-110,110A110,110,0,0,1,462.78,155.64Z"/><path class="cls-16" d="M463.64,192.48a70,70,0,1,1-70,70A70,70,0,0,1,463.64,192.48Z"/><path class="cls-17" d="M463.94,192.48a70,70,0,1,1-70,70A70,70,0,0,1,463.94,192.48Z"/><path class="cls-9" d="M283.12,153.09a5,5,0,1,1-5,5A5,5,0,0,1,283.12,153.09Z"/><path class="cls-9" d="M618.12,301.09a5,5,0,1,1-5,5A5,5,0,0,1,618.12,301.09Z"/><path class="cls-16" d="M327.23,176a6,6,0,1,1-6,6A6,6,0,0,1,327.23,176Z"/><path class="cls-16" d="M464.23,370a6,6,0,1,1-6,6A6,6,0,0,1,464.23,370Z"/><path class="cls-16" d="M813.23,275a6,6,0,1,1-6,6A6,6,0,0,1,813.23,275Z"/><path class="cls-16" d="M129.23,40a6,6,0,1,1-6,6A6,6,0,0,1,129.23,40Z"/><path class="cls-18" d="M463.94,240.11c-2.43,0-8.16,8-8.62,20.79h17.24C472.09,248.07,466.36,240.11,463.94,240.11Z"/><path class="cls-18" d="M452.11,260.9c.46-14.26,7.05-23.75,11.83-23.75s11.36,9.49,11.82,23.75h13.42a25.29,25.29,0,0,0-50.49,0Z"/><path class="cls-18" d="M475.76,264.06c-.46,14.26-7,23.75-11.82,23.75s-11.37-9.49-11.83-23.75H438.69a25.29,25.29,0,0,0,50.49,0Z"/><path class="cls-18" d="M463.94,284.85c2.42,0,8.15-8,8.62-20.79H455.32C455.78,276.89,461.51,284.85,463.94,284.85Z"/></svg>