<svg id="레이어_1" data-name="레이어 1" xmlns="http://www.w3.org/2000/svg" viewBox="0 0 943.51 331"><defs><style>.cls-1,.cls-4{fill:#023397;}.cls-1,.cls-2,.cls-3,.cls-4,.cls-5,.cls-6{fill-rule:evenodd;}.cls-2{fill:#0f64b7;}.cls-3,.cls-5{fill:#0c42b1;}.cls-4,.cls-5,.cls-6{isolation:isolate;opacity:0.5;}.cls-6{fill:#00abd6;}</style></defs><path class="cls-1" d="M354.23,110h398a55,55,0,0,1,0,110h-398a55,55,0,0,1,0-110Z"/><path class="cls-1" d="M940.23,221a55,55,0,1,1-55,55A55,55,0,0,1,940.23,221Z"/><path class="cls-1" d="M-11.77,0h196a55,55,0,0,1,0,110h-196a55,55,0,0,1-55-55A55,55,0,0,1-11.77,0Z"/><path class="cls-2" d="M168.23,220h297a55,55,0,0,1,0,110h-297a55,55,0,1,1,0-110Z"/><path class="cls-3" d="M636.23,0h62a55,55,0,0,1,0,110h-62a55,55,0,0,1,0-110Z"/><path class="cls-3" d="M294.23,1h107a55,55,0,0,1,0,110h-107a55,55,0,0,1,0-110Z"/><path class="cls-4" d="M467.23,220h107a55,55,0,0,1,0,110h-107a55,55,0,0,1,0-110Z"/><path class="cls-3" d="M106.73,110a54.5,54.5,0,1,1-54.5,54.5A54.5,54.5,0,0,1,106.73,110Z"/><path class="cls-5" d="M752.73,110a54.5,54.5,0,1,1-54.5,54.5A54.5,54.5,0,0,1,752.73,110Z"/><path class="cls-3" d="M830.73,221a54.5,54.5,0,1,1-54.5,54.5A54.5,54.5,0,0,1,830.73,221Z"/><path class="cls-6" d="M238.23,0a55,55,0,1,1-55,55A55,55,0,0,1,238.23,0Z"/><path class="cls-6" d="M590.23,0a55,55,0,1,1-55,55A55,55,0,0,1,590.23,0Z"/><path class="cls-6" d="M753.23,0a55,55,0,1,1-55,55A55,55,0,0,1,753.23,0Z"/><path class="cls-6" d="M831.23,110a55,55,0,1,1-55,55A55,55,0,0,1,831.23,110Z"/></svg>